/* XPM */
static char *af832ceda24c4815dccf2193e155e1288ah5Wdr6pWXTgvPg[] = {
/* columns rows colors chars-per-pixel */
"50 50 203 2 ",
"   c #170F0B",
".  c #1B120C",
"X  c #150E14",
"o  c #140E1A",
"O  c #1C1314",
"+  c #16101A",
"@  c #181118",
"#  c #22160C",
"$  c #27180D",
"%  c #291A0E",
"&  c #321E0F",
"*  c #211612",
"=  c #261911",
"-  c #2C1B11",
";  c #251D1C",
":  c #321F11",
">  c #3A220F",
",  c #352112",
"<  c #3A2311",
"1  c #3D291A",
"2  c #0E0C24",
"3  c #0D0B2B",
"4  c #120D24",
"5  c #100C2D",
"6  c #171323",
"7  c #1B1726",
"8  c #141129",
"9  c #0B0B33",
"0  c #0A0B3A",
"q  c #110E32",
"w  c #130D3E",
"e  c #0E1138",
"r  c #191233",
"t  c #171438",
"y  c #201A21",
"u  c #221E36",
"i  c #1D203B",
"p  c #422611",
"a  c #432915",
"s  c #4D2D14",
"d  c #512F14",
"f  c #553115",
"g  c #5B3416",
"h  c #56341B",
"j  c #5B3619",
"k  c #5B391F",
"l  c #613717",
"z  c #653917",
"x  c #653A19",
"c  c #6B3D1A",
"v  c #543822",
"b  c #5C3B21",
"n  c #423D3A",
"m  c #633E22",
"M  c #73421C",
"N  c #7B461D",
"B  c #7D481F",
"V  c #6A4528",
"C  c #734623",
"Z  c #7B4B25",
"A  c #734B2C",
"S  c #7B512F",
"D  c #7C5333",
"F  c #030543",
"G  c #080744",
"H  c #060944",
"J  c #0B0B44",
"K  c #040748",
"L  c #060A4A",
"P  c #0B0D4B",
"I  c #120D44",
"U  c #180F45",
"Y  c #110F4C",
"T  c #0D1145",
"R  c #0E114D",
"E  c #0F184C",
"W  c #131245",
"Q  c #1B1345",
"!  c #171847",
"~  c #1D1945",
"^  c #12134C",
"/  c #1A154B",
"(  c #16194A",
")  c #1A1B4A",
"_  c #070F52",
"`  c #0B0E52",
"'  c #0C1253",
"]  c #0E1758",
"[  c #0D195F",
"{  c #131454",
"}  c #141A52",
"|  c #1B1B54",
" . c #14165B",
".. c #181559",
"X. c #131B5B",
"o. c #1A1B5B",
"O. c #241B46",
"+. c #261B47",
"@. c #201F59",
"#. c #1F2540",
"$. c #1E234A",
"%. c #1E2252",
"&. c #172058",
"*. c #1A225D",
"=. c #2B2246",
"-. c #24234C",
";. c #2A244C",
":. c #2D2B4E",
">. c #31284A",
",. c #393A49",
"<. c #262657",
"1. c #2C2C52",
"2. c #222A5A",
"3. c #2B315B",
"4. c #343352",
"5. c #383257",
"6. c #3B3A53",
"7. c #32345B",
"8. c #131E63",
"9. c #1D1D63",
"0. c #1C1D68",
"q. c #221E62",
"w. c #152264",
"e. c #1A2464",
"r. c #132268",
"t. c #1D246A",
"y. c #1A2972",
"u. c #222161",
"i. c #2D2D67",
"p. c #212168",
"a. c #232C6B",
"s. c #23316A",
"d. c #353567",
"f. c #232573",
"g. c #262B72",
"h. c #2B2A74",
"j. c #2B2D7E",
"k. c #312C73",
"l. c #25357A",
"z. c #353477",
"x. c #423F57",
"c. c #473F6F",
"v. c #3F435A",
"b. c #394274",
"n. c #534B4E",
"m. c #42425F",
"M. c #4C4B5B",
"N. c #5A575B",
"B. c #675B59",
"V. c #786E5E",
"C. c #4C4464",
"Z. c #4D4A6B",
"A. c #544F68",
"S. c #535261",
"D. c #575A6F",
"F. c #514D76",
"G. c #615D69",
"H. c #696568",
"J. c #706B62",
"K. c #797364",
"L. c #706F72",
"P. c #834A1E",
"I. c #894D1F",
"U. c #854C21",
"Y. c #8A4F22",
"T. c #8E5122",
"R. c #935423",
"E. c #9B5723",
"W. c #9C5925",
"Q. c #9E5B28",
"!. c #825635",
"~. c #845837",
"^. c #875B38",
"/. c #A05C27",
"(. c #8E613D",
"). c #93643F",
"_. c #956540",
"`. c #9B6842",
"'. c #A16D45",
"]. c #AB744A",
"[. c #B47B4F",
"{. c #B77E52",
"}. c #B87E52",
"|. c #837865",
" X c #827C7A",
".X c #968C5F",
"XX c #978B6B",
"oX c #94907B",
"OX c #A3986C",
"+X c #A79B74",
"@X c #C2B47C",
"#X c #2B3A86",
"$X c #353384",
"%X c #393886",
"&X c #3F3E91",
"*X c #304383",
"=X c #324795",
"-X c #4A4283",
";X c #605E91",
":X c #726D8E",
">X c #918586",
",X c #9C9881",
"<X c #C4B788",
/* pixels */
"I Q I I J J { q.d.c.S.>.G G G J G G ~ W J G G G J U =.+.I I Q I G I I I G I J J Y o.o.Y Y P G G G F ",
"W ~ W J I ^ q.k.F.>X<XH.U G J J J I I I J I Q U ~ n.B.>.U U I U I I I G I I I Y i.L.G.u...Y G G G F ",
"I I I I / @.h.$X-X>X<XH.U G J G G G G J J I O.Q ;.XX+X7.U U Q U U I U I G I G { b.,X Xk.q. .P G G G ",
"J I I Y q.k.$X$X$Xc.C.;.P G J J I G J J J I I w O.Z.D.i.+.+.+.Q U U I I G G Y 9.l.b.d.p.q...{ P G F ",
"J J Y ..h.$X&X$Xh.@./ I J ^ / ^ U t 5 4 4 4 o = - y ;.i...+.+.Q U O.I G J W | y.g.*.| o.p.q.9.{ P F ",
"I J Y q.$X&X&X$Xq.Y U P J ) %.w 6 $ & p s d x Y.Y.z & 6 r t Q Q U U U w I ^ e.g.e.C.D.5.9.q.q.@.Y K ",
"G P ..f.%X;X:Xz...J G I 9 8 6 * p N R.E.E.W.E.E.E.E.I.l : * @ r w w 4 @ 4 <.i.t.*.K.@XN.{ ..0.8.` P ",
"F P 8.f.-X>X,XC.^ H F 3 - d z P.E.E.E.E.E.E.E.W.W.W.E.E.E.P.s O X . % : : y 2.o.^ m.H.:.P { 8.t. .K ",
"F P ` q.h.Z.A.3.Y G 0 o c W./.E.E.E.E.E.E.E.E.E.W.W.E.W.W.Q.c : a c P.C D , r I J I I J P { r.a.o.J ",
"F G `  .@.<.o.{ J 9 o < T.W.E.E.E.Q.E.E.Q.E.E.E.E.W.W.R.E.Q.Q.E.E./.E.C '.(.- 3 J J J J P X.e.3.( L ",
"F I J P Y ^ } ] 5 $ g I.W.E.E.W.Q.E.E.Q.E.W.Q.W.W.E.c f g U.Q.W.W.E.E.Y.D ].D * r I J P ' X.X.( P F ",
"G J G G P X.X.! * N W.E.W.E.W.E.E.E.E.Q.E.E.Q.Q./.U.d m m g c E.E.E.E.E.U.C ^.v o 0 P P R ' P H H F ",
"F G F H ' 8.$.@ g E.E.E.E.W.W.E.E.E.E.E.E.Q.E.E.E.Z d m _.m f U.W.E.E.W.E.R.N : X w G I I G G J W H ",
"G F H P X.w.6 f E.E.E.E.E./.W.E.E.E.W.W.E.W.E.E.E.R.l d b h f Y.Q.E.E.E.E.E.P.. o G Q U J G G J W I ",
"F G I { w.| O P.E.E.E.E.E.E.E.W.E.E.W.W.E.E.W.E.E.E.E.c f f c E./.E.E./.W.W.j   8 +.J.B.O.I G 0 H H ",
"G J P X.w.-.- U.E.E.E.E.E.W.E.W.E.E.W.W.E.E.Q.Q.E.E.E.E.R.Y.E.W.E.E.E.W.Q.W.s # @ +.XX|.O.J F G F H ",
"P T R &.%.t & E.E.E.E.E.E.E.E.E.E.E.W.Q.E.W.Q.E.E.E.E.W.W.W.W.Q.W.W.W.W././.z z % r 1.=.I J F F F F ",
"T J R ' ^ X l E.E.W.W.E.E.W.E.E.E.W.E.E.E.Q.E.E.E.E.E.W.E.E.E./.W.W.W.W.W.W.W.W.d 4 J I J J J G F F ",
"0 G J P 9 - I.E.E.E.E.E.E.E.E.E.E.E.E.E.Q.E.E.E.W.E.E.E.E.E.E.E.W.W.W.W.W.W.W.W.M X I I J J O./ G K ",
"G H H J 3 p R.E.R.I.T.I.P.T.E.E.E.E.E.E.E.W.E.Q.Q.W.W.W.E.Q.W.E.W.W.E.W.E.E.E.W.B * w I I W ~ U P K ",
"H J W J 3 p E.E.z d f g f l T.E.E.E.E.E.W.W.W.E.W.E.E.E.E.E.W.E.E.E.E.W.W.E.E.E.N O w I J G J Y Y { ",
"F H W T 9 % I.R.g s k c m f P.E.E.E.E.Q.W.W.E.Q.Q.Q.E.E.E.E.W.W.E.E.W.W.E.E.W.E.T.& q I G G G P  .X.",
"H F H H 0 O P.W.N d k A b d T.W.E.E.W.E.W.E.E.E.E.Q.E.R.E.E.E.E.E.E.W.W.E.W.E.E.T.& 9 G G G G P | ..",
"H 0 H H 0 = Y.W.E.M f s s c E.W.E.E.Q.E.E.Q.Q.E.E.R.l g c R.W.E.E.E.E.E.E.W.E.E.c O w J I G U I J Y ",
"H H H H 9 & R.W.W.Q.T.Z I.E.E.E.E.W.W.W.W.Q.W.W.W.M s m f g P.T.E.E.E.E.E.W.E.R.% r ) W J J I H P G ",
"T H H R e & g P.W.W.Q.W.W.W.W.W.W.W.W.W.W.Q.Q.E.E.j m `.~.k d g z T.E.E.W.E.E.P.O W ^ P I ) I H G F ",
"T H R { 7 . , I.W.E.W.W.E.E.W.E.W.Q.W.E.E.E.W.W.W.j V ].[.'.~.V g N E.W.W.E.W.c X P J J 6.|.v.J F F ",
"] E E 6 = j T.W.W.Q.W.W.W.W.E.E.E.W.W.W.E.E.E.W.Q.M h `.}.}.}.^.d B W.W.E.E.W.c @ w P P S.+XS.R G F ",
"r.w.t 1 k E.E.W.E.W.W.W.W.W.E.E.E.W.E.W.E.W.W.E.E.U.d D ].}.}.!.d P.W.E.E.E.E.P.= 9 J J ! 1.| ' P K ",
"l.b.i v A E.W.E.W.W.W.W.E.E.E.E.W.W.E.E.E.E.E.E.E.Y.j f S ].].A d I.W.W.E.E.E.R., 3 H F F F L ] ] _ ",
"l.=X3.1 V U.Q.E.E.W.W.E.E.W.E.W.E.E.E.E.E.E.E.E.E./.R.x d A !.f l E.W.E.E.E.W.P.% q H F F F L ' 8.8.",
"l.=X*X; D M E.W.W.E.E.W.W.W.E.E.W.E.E.E.W.E.E.E.E.E.Q.E.x d d j I.W.W.E.E.E.Y.- o H H F F H H ' [ 8.",
"y.#X*X; D m W.Q.W.E.W.W.W.E.E.E.E.W.E.E.W.E.E.Q.W.W.W.W.R.N Z R.W.W.W.W.T.P.z X 0 F F F F H F F _ _ ",
"w.y.l.#.- < Z Y.R.E.W.Q.W.W.E.E.W.W.E.E.E.W.W.Q.W.W.Q.W.W.Q.W.W.W.W.E.W.M % # 3 F F H H F H F F F F ",
"' X.e.s.$.7 . . : a T.Q.E.E.E.E.W.W.W.W.W.E.W.W.W.E.Q.W.E.W.W.E.W.W.E.W.I.% 2 H G J W H F F F F F F ",
"P R E } &.E e o $ j T.Q.W.W.E.E.M x c M U.E.W.E.W.Q.W.W.W.W.W.E.E.W.E.E.E.s X 9 H T T W H F F F F F ",
"H F H T T H H e O s Z R.R.Q.Q.R.f d s s f x R.Q.W.W.W.W.E.W.W.W.W.W.E.E.M b - 2 T J $.H.M.H F 0 F F ",
"F F H H H H T i n 7 % : < z R.Q.c s b ~.D k j R.W.E.W.E.E.E.E.W.W.W.W.M V A X 0 H H :.OXJ.P F F F F ",
"F F H F H H T v..Xv.e 9 3 . h W.E.M f V `.D f U.W.E.W.W.W.W.E.c l U.Y.k ).a 3 F F J ^ 5.-.J G F F F ",
"H H F H T T T :.v.$.T 0 E e . M W.W.N f f f f U.W.Q.E.E.E.T.l . . - > : , + 0 F F P P ` L H H F F F ",
"J H H J ~ T ! %.&.E T H H H 3 % N R.R.T.Z N U.W.W.Q.E.W.P., X 2 u n.n 4 9 F F F F H P ` ` ! P 0 F F ",
"H F H H T H E *.*.E T T H H 0 8 # , , , a g N T.E.P.M z % 2 H F W -.) K F F F F G J { { ^ / J F F F ",
"F F F F H J ] r.] T T T H H T T 9 q 9 9 2 o @ % : O @ o 2 H F F F F F F F F F F H P ` Y ` K F F F F ",
"H F F F F P [ 8._ H H L E T H T H F F H J H 0 e 9 0 0 H H F F F F F F F F F F F F L ` ' P F F F F H ",
"F F F J K ' r.w._ F H P $.{ -.4.I J ! N.,.H T H H F J W :.;.H F F F F F F F F F F P X.X.` K F F F F ",
"F F H ~ 6.2.r.X.L G G ' X.9.H.XX3.J 1.XXN.T T T H F H ~ V.V.W F F H F F F F F F J 7.D.b.8._ K F F F ",
"F F F 4.OXH.e.X.L F F P  .p.Z.D.7.' } 7.<.T 0 T H F F H 6.6.H F F G F F F F F F R H.<XL.y.r.[ _ L K ",
"0 F F ) M.7.*.} G F F J { 9.g.z.g.e.o.( ! H T H F F H H F F F F F F F 0 F F F F T S.oXD.a.y.y.r.' K ",
"F F F F G L ' P F F F G P  .0.f.$Xh.i.| ( H F H H H H F F F F F F F F F F F F F F T ;.%.' [ r.8._ F ",
"F F F F F F F F F F F F G L  .y.$Xj.t.{ J H F F H T H F G H F F F F F F I J F F F F P H K L L _ K F "
};
