/* XPM */
static char *_c3712e54fa14df5d4b3f7c7c1ea66c665I2g9E5931MMSvG[] = {
/* columns rows colors chars-per-pixel */
"50 50 237 2 ",
"   c #000101",
".  c #01090B",
"X  c #031418",
"o  c #031B22",
"O  c #082A32",
"+  c #030543",
"@  c #090644",
"#  c #060944",
"$  c #0B0B44",
"%  c #060748",
"&  c #060A4B",
"*  c #0B0D4B",
"=  c #130D45",
"-  c #190847",
";  c #120D4A",
":  c #1D0B49",
">  c #0C1144",
",  c #0E114D",
"<  c #0F184E",
"1  c #141345",
"2  c #1B1345",
"3  c #1C1B46",
"4  c #13134C",
"5  c #1B144B",
"6  c #15194A",
"7  c #1A1A4A",
"8  c #0A0E52",
"9  c #0C1353",
"0  c #0E195A",
"q  c #131453",
"w  c #141A54",
"e  c #1B1C54",
"r  c #14165B",
"t  c #181559",
"y  c #131B5C",
"u  c #1B1B5B",
"i  c #23064A",
"p  c #2C064C",
"a  c #230B4A",
"s  c #2B0A4C",
"d  c #30074D",
"f  c #32094E",
"g  c #241B46",
"h  c #261749",
"j  c #2C0F51",
"k  c #350D51",
"l  c #390F54",
"z  c #3D0E5C",
"x  c #291755",
"c  c #381753",
"v  c #3A1155",
"b  c #3E125B",
"n  c #1F204A",
"m  c #0B3844",
"M  c #1B2255",
"N  c #1B225D",
"B  c #27264C",
"V  c #29234B",
"C  c #33264C",
"Z  c #252857",
"A  c #2C2C52",
"S  c #23245B",
"D  c #372553",
"F  c #313456",
"G  c #363655",
"H  c #131E63",
"J  c #1D1D64",
"K  c #231E62",
"L  c #162264",
"P  c #1A2463",
"I  c #1A246A",
"U  c #192A72",
"Y  c #1D3271",
"T  c #232363",
"R  c #222268",
"E  c #272C68",
"W  c #22326B",
"Q  c #363567",
"!  c #272A76",
"~  c #2B2B74",
"^  c #312C72",
"/  c #283679",
"(  c #363378",
")  c #41155D",
"_  c #423B55",
"`  c #513656",
"'  c #450E6B",
"]  c #421262",
"[  c #48126A",
"{  c #4B0F74",
"}  c #4E0D7B",
"|  c #500E7E",
" . c #4E1175",
".. c #51117C",
"X. c #08404C",
"o. c #0A485A",
"O. c #124A5A",
"+. c #11586F",
"@. c #29556B",
"#. c #394274",
"$. c #4A485C",
"%. c #534855",
"&. c #59565B",
"*. c #665359",
"=. c #756C5E",
"-. c #4C4668",
";. c #555668",
":. c #504D71",
">. c #615B68",
",. c #5F6068",
"<. c #696568",
"1. c #716E6F",
"2. c #777268",
"3. c #82796C",
"4. c #968969",
"5. c #91896F",
"6. c #A2976C",
"7. c #A4986D",
"8. c #A59A75",
"9. c #C2B47C",
"0. c #2A3B83",
"q. c #383685",
"w. c #3F3E91",
"e. c #530D84",
"r. c #550C89",
"t. c #590C8C",
"y. c #561084",
"u. c #5C0B95",
"i. c #560998",
"p. c #5C0A9B",
"a. c #610A9C",
"s. c #4B0AAA",
"d. c #5409A4",
"f. c #5B09A5",
"g. c #5C07A9",
"h. c #5309AB",
"j. c #5B09AB",
"k. c #4D09B4",
"l. c #4C08B9",
"z. c #5309B3",
"x. c #5B08B5",
"c. c #5707BC",
"v. c #590ABB",
"b. c #6209A4",
"n. c #6308A9",
"m. c #6608BC",
"M. c #364584",
"N. c #314694",
"B. c #3D5196",
"V. c #0F6A91",
"C. c #0A4CBE",
"Z. c #0555B5",
"A. c #0454BC",
"S. c #0B6EA6",
"D. c #0F78AB",
"F. c #484682",
"G. c #605E92",
"H. c #6F728B",
"J. c #3D0FCD",
"K. c #3B14CC",
"L. c #3518C9",
"P. c #3B1CCC",
"I. c #291DDC",
"U. c #3A1AD5",
"Y. c #1F2BCD",
"T. c #1938CA",
"R. c #1D2ED1",
"E. c #1B36D7",
"W. c #2527CC",
"Q. c #232DCA",
"!. c #2C2CCA",
"~. c #3825CA",
"^. c #3C21CD",
"/. c #322BCB",
"(. c #2130CD",
"). c #2425D6",
"_. c #2628D6",
"`. c #2523DB",
"'. c #2922DD",
"]. c #3524D1",
"[. c #2132D8",
"{. c #2F17E5",
"}. c #2E1BE4",
"|. c #3418E5",
" X c #450DCD",
".X c #4E0CCC",
"XX c #5809C6",
"oX c #540BCB",
"OX c #4514CE",
"+X c #470DD3",
"@X c #4B0BD4",
"#X c #5808DA",
"$X c #4313D2",
"%X c #421BD1",
"&X c #4A17D8",
"*X c #6807C4",
"=X c #6706DB",
"-X c #7105D5",
";X c #4121CD",
":X c #5C0BE4",
">X c #4915E5",
",X c #5513E7",
"<X c #630BE4",
"1X c #6608E4",
"2X c #6210E8",
"3X c #084DC3",
"4X c #1641CD",
"5X c #0351C5",
"6X c #094BDA",
"7X c #1145D7",
"8X c #0253D4",
"9X c #0554DB",
"0X c #104BE4",
"qX c #0659E7",
"wX c #0455EC",
"eX c #065CF2",
"rX c #0464EA",
"tX c #0568F4",
"yX c #0776F7",
"uX c #0674FA",
"iX c #077AFB",
"pX c #857F85",
"aX c #0D84BB",
"sX c #118CB7",
"dX c #0B86C4",
"fX c #0E99C6",
"gX c #068AD8",
"hX c #0995DB",
"jX c #058CE7",
"kX c #0591EC",
"lX c #079BEB",
"zX c #0784F7",
"xX c #068CF5",
"cX c #068BF9",
"vX c #0693F3",
"bX c #918B85",
"nX c #C4B788",
/* pixels */
"= 2 = = $ $ q K Q ` :.D * @ @ $ @ @ h - $ @ @ o * : V g 2 = g = @ = @ - * * $ $ q u e q * % @ @ @ + ",
"1 3 = = = 4 K ^ :.bXnX<.; + @ = O @ = $ @ = 2 2 5 %.*.D = = = = = = - o @ - $ q E 1.,.x t ; @ @ @ + ",
"= = = = 5 K ~ q.F.pXnX<.= @ $ @ $ @ $ $ $ = 3 2 V 5.8.G 2 2 2 - - - = = @ @ - r #.8.pX^ J t * @ @ @ ",
"$ = $ 4 J ~ ( q.q.-.-.B = $ & $ $ = @ @ $ = ; 5 T :.>.E h g g 2 i O - = @ @ ; H Y #.Q R R t t * @ + ",
"@ ; ; t ~ q.q.q.~ x e * $ 4 6 = 2 2 O - - o 4 S / M.#.E 5 h g 2 2 g = = $ = e W U P e J K J J q * + ",
"= % ; R q.w.w.q.J ; 1 $ $ e M 4 2 V C g ; i u / M.( ( x 5 h a 2 = = = = = 4 P ! P -.>.F J J K u ; + ",
"@ $ t R q.G.H.( t $ @ $ * r H q = _ 4.%.a q K ( ( z d s s s a a = = 2 g 5 Z E I N 2.9.;.q t J J 9 % ",
"+ & t ~ q.H.nX-.4 @ @ @ , N E t = C ` ) k z ) ) b b ) v k f d s i - 2 g e T T w 1 $.<.C * q H I y & ",
"+ % q J ~ :.:.A , # + $ < ;.2.D p p f l ] ..e.e.y.y.e.e.{ ' l l k f h 1 w t x 1 $ - = $ * q I W u * ",
"@ $ 8 r x Z e q * + $ $ x >.*.k f l ] ' t.p.b.n.n.n.p.d.g.p.t.' ) ) v j h 6 2 $ $ $ $ $ , y I Z 6 & ",
"@ $ = % , 4 w r * # @ $ 5 k p l ] e.u.f.j.h.h.x.v.*Xc.l.z.h.g.b.t.y.[ ) j 2 = $ = = $ ; q 0 y 6 > + ",
"@ $ @ @ * q H y * @ @ ; p f v { i.g.j.z.c.XX.X X@X<X1X#X@XoXXXx.b.b.a...) j a 2 = @ $ * * 9 * # @ + ",
"+ + # # 9 y L w 1 1 $ 4 j )  .i.s.s.XX.XL.L.P.%XU.P.$X<X#XJ.L..Xc.j.n.a. .b f p = @ = $ = $ # $ $ $ ",
"+ @ @ * y L y q > $ ; j ) ..u.f.s.oX@XJ.$X!.!.!.!.].}.>X,X$X~.L.J.oXx.n.a. .v d - = 1 2 $ $ + $ 1 1 ",
"@ # 1 9 L P M 6 $ $ s b ..p.g.x.-X<X:X1XU.`.I.`.R.R.`.{.}.I.W./.%XK.=X*Xb.u.{ v p g =.*.g = @ @ @ % ",
"@ @ , y L Z =.&.1 : l } u.g.h.=X@XP.>X>X}.'.[.T.A.A.5XE.E.`.'.W./.%X+X-Xk.s.u.] f k 4.3.h @ @ % o % ",
"$ $ < y M A 3.=.h p ] y.f.h.XXOX^.].}.}.R.7X0XwXwXwX9X8X9X7XT.(.).].K.:X#Xs.g.| l f c V = @ o + + + ",
"1 $ , < , 1 V g i k ] u.h.z.OX;X^._.(.C.8X8XrXyXiXyXtXqXqXrX7XA.T.}.&X<X@XXXj.p.z k a = $ @ * % + + ",
"# # $ $ $ $ $ = p l { p.h..X~.~.Q.(.Z.8XwXtXiXcXvXcXcXcXiXuXtX6X5X'.|.:X@X+Xc.b.' l p 1 = = g 6 + + ",
"@ # # $ $ # $ a f z u.f.v.P.~.Q.'.T.7XtXuXcXkXgXsXD.dXlXlXcXuXwX8XE.|.U.J.L.XXg.r.b l = = 1 3 4 * & ",
"@ $ 1 > # > = p k { f.h.oXL.%X`.`.0XrXiXzXjXD.+.O.X.X.V.fXvXcXtX8X6X_.I.W.L.@Xg.b.} v 2 $ $ $ ; q q ",
"# # 1 $ # $ = p l } h.s.@X#X,X}._.6XqXzXhXD.o.o . . . O +.D.kXyX9XqX[.I.!.K.@Xx.b.e.v : @ $ $ * q t ",
"+ + # # # # - p v e.s.s.#X<X,X|.E.8XtXxXdX@.X           O V.hXvXyXwXT.).Q.OXJ.XXb.t.) : $ @ @ $ e t ",
"% + + O # $ a s b y.d.k.1X&X].}.3XqXuXkXD.m .           . o.fXvXiXwX5XT.Q.%X@X*Xn.t.) a $ = = @ * 8 ",
"@ # # # > > h p ] y.b.m.<X~.'._.C.wXuXjXS.O             . X.aXvXyXwXA.T.'.P.#X*Xb.r.b s = @ = $ @ @ ",
"$ $ # , < 4 7 h ] y.f.c.#X^.!.R.Z.eXiXkXD.O             . o.dXvXtXwX5X_.|.%X:X*Xf.y.b f : 7 1 $ @ + ",
"$ & , w P x Z _ ] y.f.k.OX;X!._.4XeXyXkXsXO.X           o +.hXcXrX8X7X}.>X<X#Xl.d.e.v f _ 3.G $ @ + ",
"< 9 0 T ~ T S D ) y.f.h..X~.!.`.[.0XrXyXjXV.m X     . X o.sXlXzXqX8XE.}.>X<X.Xc.g...v p %.8.;., + + ",
"P P U / ~ E w h v y.p.s.oX~.!.).'.7X9XyXzXgXV.O.O O m +.D.kXvXiXeX0X).}.K.J..Xz.b.' l i 6 A M 9 & % ",
"/ / 0.M.:.P 6 5 f [ t.h.c.K.P.].|.[.8XrXuXxXhXdXD.V.aXfXkXcXuXtX9XT.I.Y.L.L.XXg.i.z d - + + & 9 0 9 ",
"/ N.B.bX8.F 4 4 s v  .d.h..XOX2X|.}.3X9XtXyXcXvXxXkXvXvXzXtXeX9XZ.T.)./.U. Xc.f.} l p @ + + & 9 H y ",
"/ N.B.H.1.B > 1 s k [ p.d.XX+X<X,X|.(.Z.9XeXrXtXuXuXiXuXqX8X8X5XT.`.!.%XL.XXg.u.z k i @ + % $ 9 0 H ",
"! 0.N.N.W < > 6 a f v y.h.s.#X#X%X].`.R.4X0X9X8XqXeXeXeXqX6XE.`.{.`.%XL.#Xz.b.r.) d @ + + @ # # 8 8 ",
"H R / M.Y 0 n O 2 p f [ i.s.k.-X&X^.~.Q.'._.E.E.5X5XA.T.E.`.}.|.>X$X$X=Xx.g.a.} v - + # + + + + + + ",
"9 0 L Y Y M 6 > > : d v ..i.d.x.1XOX;X~.Q.I.}.}.'.(.T.R.I.I.I.:X1X#X1X*Xg.b.e.) a $ 1 @ + + + + + + ",
"* > < M y < > > > $ p d b y.u.d.z.oXP.~.~.P.>X>XU.'.`.(.!.!.K.+X@X#Xl.b.a.e.) k = > > 1 @ + + + + + ",
"% % & & * > % # > > 2 p k ] y.p.h.s.c..XL.K.#X1X&X].^.%X;X~.L. XXXl.s.p.| ] j % $ > 3 <.$.# + + + + ",
"+ # + + # # O 3 G 3 $ : a j ] e.p.f.h.k.XXoX@X#X1X#X@X$X X.XXXx.j.g.p.} z k : + $ @ A 6.=.> # + + + ",
"+ + # % # # > _ 4.G # > > = j ] ..t.u.d.h.h.l.l.XX*XXXc.z.h.h.g.b.r.' z f p - + + $ 4 F B # + + + + ",
"+ # o % $ > 1 A _ B > # > > 1 s z ] ] e.u.f.h.s.i.g.g.g.g.b.t.} ' l k p i ; + + # $ * 8 & $ # + + + ",
"* % # $ 3 > 6 M m w $ # # > # > a k k l ' { e.t.t.y.t.t.t...' l k k d : & % + + + # * 9 ; 4 > + + + ",
"% o # # > > , N S < > > # # # > > : i p d l l l ] ] ] ] ] z k p i a ; & % % o + + & q 9 ; 5 $ + + + ",
"+ + + + # # 0 L 0 # > > # # # 1 $ > $ - i p p d k s a : - - * % + + + + % + + + $ * ; q * & + + + + ",
"+ + + + + * H H 9 % # $ 4 > % > # + # # $ @ = - - = @ @ + + + + + + + + + + + + + & 8 9 * % + + + # ",
"+ + + $ & 9 H H 8 + + , M 4 Z A , # 7 &.G $ $ $ @ + $ 1 V V o + + + + + + + + + % 9 y y 8 % + + + + ",
"+ + @ 7 G Z L H & + # 9 w J >.6.A $ A 4.&.> > = $ + + 6 3.2.; % + @ + + + + + + & F ;.#.H 8 & + + + ",
"+ + + G 7.<.P y & + + * r R -.,.Q * w F B > @ % # + + $ G G % % + $ + + + + + + 1 1.nX1.Y H 0 8 & + ",
"+ + + 7 $.F N e # + + $ q J ! ( ~ P M w 1 $ O # + + @ # + + + % + + + + + + + + , $.bX;.Y U U H 9 % ",
"+ + + + + & , , + + + + * t J ! ! ! E e 2 $ + # # # # + + + + o + + + + + + + + + > B h 9 H H H 8 & ",
"+ + + + + + + + + + + + + & r ! q.0.R q * + + + + 1 # + + # + + + + + + = $ + + + + & * & & & & & + "
};
