/* XPM */
static char *result[] = {
/* columns rows colors chars-per-pixel */
"50 50 238 2 ",
"   c #160B1D",
".  c #2B070B",
"X  c #360E0D",
"o  c #26081A",
"O  c #3A0715",
"+  c #09092B",
"@  c #170E26",
"#  c #15132B",
"$  c #181728",
"%  c #0C0E33",
"&  c #070939",
"*  c #050A3B",
"=  c #0D1230",
"-  c #171333",
";  c #14143C",
":  c #240A20",
">  c #241929",
",  c #291C36",
"<  c #1C2037",
"1  c #28252A",
"2  c #382523",
"3  c #3B3328",
"4  c #292935",
"5  c #2F3236",
"6  c #3A393A",
"7  c #4D0809",
"8  c #520B0E",
"9  c #5C0C11",
"0  c #6B0B0C",
"q  c #780707",
"w  c #501A21",
"e  c #4F2C2B",
"r  c #592322",
"t  c #453725",
"y  c #622725",
"u  c #5D4E1D",
"i  c #48403E",
"p  c #6F5B20",
"a  c #756223",
"s  c #030543",
"d  c #080744",
"f  c #060944",
"g  c #0B0B44",
"h  c #060748",
"j  c #060A4A",
"k  c #0B0D4B",
"l  c #130D44",
"z  c #180F45",
"x  c #120F4A",
"c  c #0C1244",
"v  c #0D124B",
"b  c #0F194D",
"n  c #141345",
"m  c #1B1345",
"M  c #151A45",
"N  c #1C1B45",
"B  c #14134B",
"V  c #1B154B",
"C  c #151A4B",
"Z  c #1B1B4A",
"A  c #070F52",
"S  c #0B0E52",
"D  c #0C1352",
"F  c #0E1958",
"G  c #131453",
"H  c #1C1651",
"J  c #141A53",
"K  c #1B1B53",
"L  c #14165B",
"P  c #181559",
"I  c #131B5C",
"U  c #1B1B5B",
"Y  c #211646",
"T  c #231B46",
"R  c #2A1D46",
"E  c #231B4A",
"W  c #201B56",
"Q  c #221C54",
"!  c #1C2148",
"~  c #153D42",
"^  c #1E2253",
"/  c #15235A",
"(  c #1A235B",
")  c #2A2245",
"_  c #24234C",
"`  c #2A234B",
"'  c #292B4D",
"]  c #312549",
"[  c #342B4C",
"{  c #2D324B",
"}  c #37344E",
"|  c #232353",
" . c #2C2C53",
".. c #24235C",
"X. c #282859",
"o. c #312851",
"O. c #2B3157",
"+. c #333352",
"@. c #393755",
"#. c #3C3A52",
"$. c #32345B",
"%. c #131E63",
"&. c #1D1D64",
"*. c #231E62",
"=. c #162364",
"-. c #1A2463",
";. c #192866",
":. c #1E256B",
">. c #1D326F",
",. c #192A72",
"<. c #232462",
"1. c #2A2D67",
"2. c #222269",
"3. c #232C6B",
"4. c #263465",
"5. c #23326C",
"6. c #363567",
"7. c #262B72",
"8. c #2B2B74",
"9. c #282A79",
"0. c #312C73",
"q. c #263879",
"w. c #363977",
"e. c #41364E",
"r. c #443C54",
"t. c #473F6F",
"y. c #194349",
"u. c #2A4042",
"i. c #3F435A",
"p. c #394274",
"a. c #424343",
"s. c #474A49",
"d. c #4C4F4E",
"f. c #4A465A",
"g. c #584C55",
"h. c #555555",
"j. c #53525B",
"k. c #5D5C5B",
"l. c #665B58",
"z. c #5F615F",
"x. c #6C645A",
"c. c #796C5F",
"v. c #7E745E",
"b. c #4C4668",
"n. c #4F4F6F",
"m. c #555668",
"M. c #615D69",
"N. c #4D6163",
"B. c #5D6167",
"V. c #636463",
"C. c #696667",
"Z. c #6B6C6A",
"A. c #736C64",
"S. c #76736A",
"D. c #6C6B70",
"F. c #737471",
"G. c #797B7A",
"H. c #990301",
"J. c #97100D",
"K. c #AD0E0B",
"L. c #B5110E",
"P. c #B71310",
"I. c #87220E",
"U. c #B5360F",
"Y. c #CB0A05",
"T. c #D80703",
"R. c #CA130A",
"E. c #D1100D",
"W. c #C31411",
"Q. c #D01511",
"!. c #EE0602",
"~. c #E60A06",
"^. c #F30502",
"/. c #FF0400",
"(. c #DD2107",
"). c #EE320A",
"_. c #F23C0D",
"`. c #846D1E",
"'. c #9C7A21",
"]. c #BE7E24",
"[. c #D74F15",
"{. c #F05416",
"}. c #F9691E",
"|. c #EA7221",
" X c #80765D",
".X c #857966",
"XX c #827C7A",
"oX c #D09026",
"OX c #EC8728",
"+X c #F6962B",
"@X c #FD982E",
"#X c #D1AD27",
"$X c #E4A229",
"%X c #FFAF2F",
"&X c #F5C62C",
"*X c #968C5E",
"=X c #8C8466",
"-X c #988A6A",
";X c #838377",
":X c #979372",
">X c #A2976C",
",X c #A79976",
"<X c #AFA47A",
"1X c #C3B479",
"2X c #2A3B83",
"3X c #363384",
"4X c #393986",
"5X c #3F3E91",
"6X c #374687",
"7X c #344893",
"8X c #3D5196",
"9X c #0E7887",
"0X c #464781",
"qX c #605E92",
"wX c #6F728B",
"eX c #857F85",
"rX c #0E8899",
"tX c #1E9BAC",
"yX c #4D9CA8",
"uX c #1EC8E0",
"iX c #23D1EA",
"pX c #36E7FF",
"aX c #4CEDFF",
"sX c #858885",
"dX c #8C8F8B",
"fX c #908989",
"gX c #8D918D",
"hX c #93948B",
"jX c #929491",
"kX c #979997",
"lX c #9C9D9B",
"zX c #A3A4A2",
"xX c #A7A8A7",
"cX c #ACADAC",
"vX c #B0B0B0",
"bX c #C4B788",
"nX c #81D4E0",
"mX c #8FE2EE",
/* pixels */
"l m l l g k x *.6.b.g.o.d d d l d g Y n d d d f l n ) T l l m l d l d & l d d g S W U G S d d d d d ",
"n N l l l B &.0.n.eXbXD.x d d d g g l l g l m m m g.x.] z z l z l l l l l l l S 1.D.M...P x d d d s ",
"l l l l V *.8.3X0XfXbXC.z d d d l d f g g l m m ` -X,X$.z z z z l z z l d d l P p.hXXX0.*.L k d d s ",
"g l g B *.0.3X3X3Xt.b._ x d k l d l & d g l l V ..n.n.6.E R R z z z l g l d x &.5.p.6.2.*.&.x k h d ",
"d l x P 8.3X5X3X8.W H l g B V x m m l g l l x <.w.w.4X8.H R R z z Y z l d x K 3.7.( H W *.*.&.G g s ",
"l d S *.3X5X5X3X*.x B l k Z ^ B m ) [ T l l K q.6X7X6X*.V z Y m l z z l l C -.7.;.b.M.$.&.:.&.W x d ",
"d g P 7.3XqXwX0.P h g g k G I D l r.-Xg.Y H 3.6X8X7Xw.o.e.e.Y z l l m Y V ..1.2.| S.1Xm.P &.&.%.S j ",
"d h P 8.4XwXbXb.B d d f k -.1.K l } c.r.m W w.8X8Xw.X.t.,X-X[ z l g m ` H ..<.U C r.C.o.j S %.:.%.j ",
"s h L &.0.b.n. .x d d d G m.;X#.Y m T V V | w.0Xw.1.Q r.,X>Xe.z z z V H P P W x l l m d h F ;.3.U j ",
"s g k L U  .U G k d f k | F.<Xf.m z z m z Q X.1.X.Q Y E r.e.R Y z H W E V z z l d d d k k F :.O.V f ",
"d l k g k G P G k d f g J $.@._ l l z m m z B V V Y Y z z z V E H W o.o.Y z d d l l d k G I L C g s ",
"d d d d k F / I k d g g v K U E m n l m m z z z V V m z z V z H H W R R R z z z l g g x v S k g f d ",
"s d d h D I =.P B n g B H U Q ` N N T n m T ` Y m m m Y R Y H Q W V Y Y Y z l l g d l l g d d f l g ",
"d d f k I =.I C l g x V W ..| C V T ) T T r..Xl.T m m m Y V W R o.R z z Y z z g d l m l l g d g M g ",
"s s l G =.=.^ C f g C U <.( K B n n n N N l.1X.X` m m l z V W e..Xg.Y z ] R z l l ` A.l.E g d d f g ",
"d d v I =.X.A.j.m g G K U K B l l c l n m [ k.f.` N n x l l z o. Xg.Y , R Y m l l ] -XA.R g * d s s ",
"l g v I ^ O.=Xx.C g G K K C n n n M n m ! _  .#.` V m % O q 9 o ; ] Y z z z m z m m o.` l d s s s s ",
"n c v D v n _ E l v V Z E N M M m N N T ' X...` _ N + 7 T./.^.K.7 @ ; l z z V z z l g l g d g d s s ",
"d f g k g g * g g g C B M ; ; = - # # = - < M ! N = 8 ~.~.E.Y.L.J.. + z z z Y E z l l l g l T m d s ",
"d f f g f g n g g g * + $ 4 u.h.V.C.C.V.h.i.5 <   7 Y.Q.W.L.0 w > - - m z V E Q H l l l l n V V j j ",
"f g n g f g g g * = 5 C.dXzXcXvXvXvXvXvXvXcXzXgXS.s.e q P.9 1 =XA.] T N m T Q X.` m l l g g d x S G ",
"s f n c f f g + o x.xXvXcXxXlXjXlXzXzXzXzXzXxXcXcXcXkXl.2 @ } .XC._ m n x H ..Q _ x g g & g h k P P ",
"f f f f d * o H.W.C.zXlXkXZ.y.y.u.Z.gXgXgXgXkXkXlXzXxXcXgXs.$ ) 4 , 2 2 t t t 3 1 = f f d d d g H P ",
"* s f f & O T./.!.e gXgXF.y.rXtXrX4 F.gXgXgXgXgXgXgXjXkXzXlX5 . I.U.[.|.OX+X+X$XoX'.u > & l l l k S ",
"f f f f O T././.^.r sXgXd.rXiXiXuX9Xh.gXdXdXdXdXdXdXdXdXjXdX5 7 Y.R.(.)._.{.+X@X@X%X&X#X`.@ & g d g ",
"g f g * 8 E.~.!.!.y sXgXd.yXaXpXpXtXh.gXdXdXdXdXgXdXdXdXsXF.1 7 Y.Y.(.).{.}.@X@X@X%X&X#Xa 1 l g d d ",
"c f k J T 9 P.W.P.e =XyXS.d.nXmXnXN.F.gXdXdXdXdXsXsXG.F.Z.V.1 X U.[.{.|.OXOXoX].'.p 3 # +..X#.g d s ",
"J D J 2.1.K O J.J.t x.F.G.k.d.N.d.x.sXsXsX;XG.G.F.Z.C.V.z.i < ; - > 1 2 2 2 @ @ ; * g v f.<Xm.k h s ",
";.;.,.9.8.:.B @ . 6 V.V.x.Z.z.k.V.F.Z.Z.Z.C.V.B.z.V.V.d.3 { p.>.G g g f f c g g g g g f M  .K D j h ",
"q.q.2Xn.n.3.J M = = 1 a.h.z.B.x.V.V.x.B.V.V.x.z.d.i e 0 J.w 4.q.-.v f g g g g f g g f s s h j F F D ",
"q.7X8XsX,X$.M n c c c * < 4 5 a.s.s.s.u.u.6 4 $   q Y.W.W.L.9 , ^ v c } +.c d d n n f s s s j F %.I ",
"9.7X8XwXF.| c c c b b >.2X2X;.} d.4 = = = = * c M : H.!.~.E.R.L.q . $ =X=XN * f g g s * s f f A F %.",
",.2X7X6X5.b c M M c / >.q.>./ ~ ' ! c c c c f c c c + q !./.!.Y.0   & j.j.n s f s s * s s s d h A A ",
"&.,.2X2X>./ ! M M b / >.;./ M N c c * c c c c c c f * + 7 H.0 o & * s d g f f s s s f s s s s h s s ",
"D I ;.>.>./ C c c c b b b c c c c * c c c * c f c * s f * + * f d s s s s f s s f g n f * s s s s s ",
"k v v J / b c * c c c c c c c M c c c c c c c c f f f f f j f h h s s s s s f f * c n n d s s s s s ",
"d f f g c c c c c c c c c c b ! M * c c * c j c c f c { +.b g f s f s s s s f s g g E V.f.g s s s s ",
"s h s f f f c ; u.! c c c c c c M b ! { u.b b b b A ^ ;X:X_ g g s s s s f f f s g f O.>XA.g s s s * ",
"s s f f f f c i.*X#.c f f c c c c c { >XhX{ b %.=./ O.N.B.! f s f c n f j j j s * g B +._ f f s s s ",
"s f s s f c M ' i.^ c f c c c b b c { -X;X{ c F ;.5.p.>.O.F j s n l.x.c j j f h s k k S k g s s s s ",
"& f f g N n C ^ ( ! c f f f c c v k M ' _ M c c b / ( 3.;.F f s _ v.S.B h s s s s h x S S B l s s s ",
"g s s f g g v -.( b g n f f f c c g c g f f f f f j v D C k d s & _ Z d h s s s s k G G B V g s s s ",
"d s s s f g F %.F c g c g f f c g c f f f f f c f f d s g f s s s s s s s s s s f k k S k f s s s s ",
"s s s s h k I %.A j f j B c f g f h f g c f f f f f f f f s s s s s s s s s s s s k S S j h s s s f ",
"s s s g j D %.%.j h h v K J | +.B f C h.} j ; g f s g n ' _ f s s s s s s s s s h A J I D h s s s s ",
"s s s N @.O.;.%.j s k k J &.V.-X .g  .-Xz.c f c f s f M v.c.c h s f s s s s s s g $.m.6.%.A h s s h ",
"s s s +.>Xm.-.I j s s k P :.b.D.6.v C $._ g c f d * s g #.#.d s s d d d s s s s v Z.bXG.,.%.F A j f ",
"s s s Z j.$.( J d s s g S &.9.0.7.-.U J M f g g s s f s s s s s * s s s s s s s k j.hXm.3.,.,.,.A h ",
"s s s s s j D k s s s d k G &.9.9.9.1.K B d s f s f f s d s s s s s s s s s s s s B _ K D I %.%.A h ",
"s s s s s s h s s s s s d j %.:.3X9.3.P g g f s f g f s * f d s s s s s l f s s s s g k h j A j h h "
};
