/* XPM */
static char *result[] = {
/* columns rows colors chars-per-pixel */
"50 50 225 2 ",
"   c #15131D",
".  c #310E0E",
"X  c #270C19",
"o  c #370914",
"O  c #090929",
"+  c #0B0E29",
"@  c #150B27",
"#  c #17132A",
"$  c #060938",
"%  c #120F36",
"&  c #0E1135",
"*  c #171637",
"=  c #14113C",
"-  c #230A20",
";  c #271A29",
":  c #1F2323",
">  c #23252C",
",  c #372B2A",
"<  c #262532",
"1  c #2F3137",
"2  c #39393B",
"3  c #57080B",
"4  c #4A0B12",
"5  c #4C0C10",
"6  c #690708",
"7  c #780707",
"8  c #7C1614",
"9  c #503430",
"0  c #5E481E",
"q  c #554C31",
"w  c #6C572E",
"e  c #796725",
"r  c #030543",
"t  c #080744",
"y  c #060944",
"u  c #0B0B44",
"i  c #060748",
"p  c #060A4A",
"a  c #0B0D4B",
"s  c #130D44",
"d  c #180F45",
"f  c #120F4A",
"g  c #0D1245",
"h  c #0D124B",
"j  c #0F194D",
"k  c #131345",
"l  c #1B1345",
"z  c #141945",
"x  c #1B1B45",
"c  c #13134B",
"v  c #1B154B",
"b  c #14194C",
"n  c #1B1B4B",
"m  c #070F52",
"M  c #0B0E52",
"N  c #0C1353",
"B  c #0E195A",
"V  c #131453",
"C  c #1C1651",
"Z  c #141A53",
"A  c #1B1C53",
"S  c #14165B",
"D  c #181559",
"F  c #131B5B",
"G  c #1B1B5B",
"H  c #211646",
"J  c #231B46",
"K  c #2A1D46",
"L  c #231B4A",
"P  c #221C54",
"I  c #211C56",
"U  c #1E2149",
"Y  c #1A3D42",
"T  c #1E2253",
"R  c #172459",
"E  c #1B215C",
"W  c #24234C",
"Q  c #2B234B",
"!  c #292649",
"~  c #312549",
"^  c #332B4C",
"/  c #273748",
"(  c #39364B",
")  c #232454",
"_  c #2C2C52",
"`  c #23235B",
"'  c #24295B",
"]  c #2A2858",
"[  c #322752",
"{  c #2D325A",
"}  c #383655",
"|  c #3B3A53",
" . c #32345B",
".. c #131E63",
"X. c #1D1D64",
"o. c #231E62",
"O. c #162164",
"+. c #1A2464",
"@. c #182866",
"#. c #1E256B",
"$. c #1D326E",
"%. c #1A2B72",
"&. c #1D3271",
"*. c #232463",
"=. c #292D67",
"-. c #212269",
";. c #242C6B",
":. c #22326B",
">. c #2B3B6B",
",. c #363566",
"<. c #272A76",
"1. c #2B2B74",
"2. c #312C73",
"3. c #243779",
"4. c #353478",
"5. c #41364E",
"6. c #443C53",
"7. c #403B55",
"8. c #473F6F",
"9. c #0F4950",
"0. c #3F4545",
"q. c #3D4257",
"w. c #394274",
"e. c #484A4A",
"r. c #594E4E",
"t. c #52524F",
"y. c #49475A",
"u. c #574C55",
"i. c #485456",
"p. c #555359",
"a. c #5B5C5A",
"s. c #655C5A",
"d. c #5F605E",
"f. c #66635B",
"g. c #786B5C",
"h. c #7B735E",
"j. c #4C4768",
"k. c #524E6A",
"l. c #555668",
"z. c #4D4D72",
"x. c #615D69",
"c. c #5D636E",
"v. c #646562",
"b. c #686667",
"n. c #6B6C6A",
"m. c #716C62",
"M. c #6F706E",
"N. c #75726A",
"B. c #737472",
"V. c #767877",
"C. c #7B7D7A",
"Z. c #8D0A08",
"A. c #A8110E",
"S. c #AF100D",
"D. c #B8120E",
"F. c #A02A0E",
"G. c #C70C06",
"H. c #DB0A06",
"J. c #CC120B",
"K. c #D71C07",
"L. c #C41512",
"P. c #E90603",
"I. c #F00501",
"U. c #FF0500",
"Y. c #ED320A",
"T. c #886D21",
"R. c #A47021",
"E. c #CB4412",
"W. c #D95F1B",
"Q. c #F15717",
"!. c #F2701F",
"~. c #D07623",
"^. c #FC7623",
"/. c #80765D",
"(. c #82796C",
"). c #7E807C",
"_. c #AD8F26",
"`. c #DA8127",
"'. c #FB8A2A",
"]. c #FE972E",
"[. c #DBAC28",
"{. c #FBA12E",
"}. c #F7AC2D",
"|. c #F4C92C",
" X c #8B8466",
".X c #97896A",
"XX c #88877B",
"oX c #A2976C",
"OX c #A79B74",
"+X c #AFA47A",
"@X c #C2B47C",
"#X c #283C82",
"$X c #363384",
"%X c #393887",
"&X c #3F3E91",
"*X c #35498A",
"=X c #314694",
"-X c #484682",
";X c #605E92",
":X c #6F728B",
">X c #1891A2",
",X c #159AAD",
"<X c #56A8B4",
"1X c #25D5EE",
"2X c #36E6FF",
"3X c #7CC1CA",
"4X c #49ECFF",
"5X c #838582",
"6X c #878A87",
"7X c #8C8F8B",
"8X c #918586",
"9X c #8E918D",
"0X c #94948A",
"qX c #949592",
"wX c #969997",
"eX c #9A9B99",
"rX c #9FA09E",
"tX c #A0A19F",
"yX c #A3A4A2",
"uX c #ABACAB",
"iX c #AFB0AF",
"pX c #B0B0AF",
"aX c #B1B2B1",
"sX c #C4B788",
"dX c #90DCE7",
/* pixels */
"s l s s u a f o.,.8.k.[ t t t u t t x l u t t u u k ~ K s d d s s s t t s $ t a V G G f a i t t t i ",
"l x k u s c o.2.z.8XsXb.d t t s u s s u u u l l l u.f.^ d s s d s s s s s s s f *.B.x.*.D a s i t r ",
"s s s s C o.1.$X-X8XsXb.d t u t s t t u s s l l Q .XOX} d d d d s d s s t s t D w.OX(.2.o.D a t t r ",
"u u s f X.2.$X$X4.8.j.W s i t a t s $ u u s s b ) k.z.=.L K K d d d s u t t f X.3.w.4.-.o.X.M a t i ",
"t s a D 1.$X%X$X1.I C s u c v f d l s t s s c E < =.w.1.C K K d d H d s u f G ;.%.X.G I o.X.X.C t t ",
"s t f o.$X&X&X$Xo.f f s u C T c l ~ ^ J s s G R T.w #Xo.v l H d s d d s s b E 1.;.q.x. .X.X.X.I f r ",
"t a V <.$X;X:X4.D t y u a F F V s 6..Xu.H V ;.9 |._.I ] 5.5.H d s s l H v ` =.-.E N.@Xl.D S X...M a ",
"i i D 2.%X:XsXj.V t t y h E =.Z s ^ /.6.v I =.e |.[.9 8.OX.X[ d s u l Q C ` *.D c 6.b.^ a V ..#...i ",
"i t V o.1.j.k.] c t r t V l.XX| H l J l v ] 1 _.}.}.0 } OX.X5.d d d f C C D P f u s d u a V @.;.G a ",
"r t M S I ] G V a i u u T N.+Xy.l d d d v v ; [.{.}.T.* 7.5.K H H C P P d d v t t s t t a F O.=.b y ",
"i s t a a Z F V a t t u Z  .| W k s d H d s , [.].].R.% d d H P C P [ [ H d f t s s u a V B F n u r ",
"r u t t u B G F a t u u h C G L l k d d d s 0 ].].].~.% d H d C C C L ~ K d d d s u u f N a a y y r ",
"r t r y N ..O.F c k u c C G ) Q H J J k l l 0 ].Q.^.~.; K L C C P d v H H d s s u t s u u t t u s u ",
"t r y a F O.F c s u h C ` G G n c J ! J J ( w '.Y.Q.`.; v v C [ [ ~ d d H d d t t s v d s t t y z u ",
"r t s V O.+.T n y y c A ` E C c k k k l x t.w ^.Y.Y.!.; d C C 5./.r.H H ~ K d s s K g.p.J u u t u t ",
"t u a F O.] m.p.l h v G G A b s s & O = l ( 9 Q.K.Y.W.; d v H * g.r.H H K H v d s [ .X/.Q t $ t $ r ",
"u a j F E _  Xg.l f b G n x k g k @ . & W W < E.G.K.E.# n H = . @ K H l d l l l l f ^ Q s t r r r r ",
"k u h N h g W x g a v b n W k z & 3 7 # W _ < F.G.J.F.# x n + Z.3 @ s s s d v d d s t s u t u t r r ",
"t u u u u u u u y u z k c x k x X D.A.- ) ' U . 3 6 . & c u o D.S.@ k s d l H L d s s s u s J v i r ",
"r y y u y u g u u u g u k z k * 7 P.L.3 * n # > > : : # l @ 8 J.I.3 = H l l L I P s s s s l l c a i ",
"u u k u y g g u y u u g g u k & Z.U.J.S.4 + y.eX(.g.f.1 # 5 D.H.U.7 % l k L I ] ~ s s s t u t f M V ",
"r u z u y y $ u u g g u g g g & 3 I.H.L.A., qXyX8X<Xn.a.; A.D.P.I.4 = d v P ] ) W s u s u t i f D D ",
"y y $ y y y y = g g g u = u g g O 6 P.J.8 v.uXeX0X8XM.v.q 7 J.I.6 # l l v `  .v.6.k u u t s t s C D ",
"y r y y g y g y g g g = g k k k l @ 7 J.9 wXyXqX7X7XC.v.l.9 P.Z.@ l l v P =.j.+Xx.l s u u u u t a a ",
"y y y u g k g g y g g y g g k x x z @ 3 r.uXrX9X7X7X5Xb.v.9 7 X k d l v ` ` _ 7.! v H k u t s u y a ",
"u y y a h Z b W U g $ g g g k z x k k   C.iXwX9X7X7X5XN.v.e.@ v v d l v T n g u h h c a s n s u t i ",
"g y h Z E E ' h.f.z y g g z g g k c k > eXuXwX7X7X7X7XB.f.a.* L k s s k c k k u u u u a } (.| y r $ ",
"j N F +.;.*.` p.i.z g g y g g g k k % 2 uXyXqX9X7X7X7XV.v.v.< n k u u u u g k u k u g g y.+Xl.h i r ",
"+.@.:.3.1.;.V n j $ g g g R B R b h O i.iXyX9X9X7X0X8X(.v.v.1 R Z s u u u k u y u u u u c { n N a i ",
"3.3.#X-Xz.;.b z g g g j R $.&.$. .n O v.pXtX9X9X7X8X0X(.b.v.2 @.+.a u y u g u $ u u $ r r r p B B m ",
"3.=X*X9XOX .c k g g j B $.3.*Xc.oXy.+ B.pXtX9X9X9X9X9X<Xb.v.0.$.3.N g _ ^ g y y k k y r r r i N ..F ",
"3.=X=X:XM.) g k g g j @.3.*X&.i. X| + V.pXtX9XB.a.s.).5Xn.f.e.R &.N U .X XU y y u u r r r y p N B ..",
"1.#X=X*X$.j g z z j R &.3.$.R / U b + V.iXrXc.Y 9.>Xi.).n.v.0.j O.m z p.p.g y r y r r r r y r y m m ",
"X.-.#X#X&.R z z = j R $.@.j j z g g + M.aXqX1 >X1X2X3X0.n.v.2 y h p r y u r y r r r y r r r r r r r ",
"N F @.:.$.R z g g g j j j j z g & g O v.aX6X9.,X1X2XdXi.d.v.1 $ y r r r r y y r y u k y r r r r r r ",
"a a j Z R j g g g g j g $ g g z g g $ i.iXqX9.,X1X4XdX0.v.d.< $ r r r r r r y r $ g k k u r r r r r ",
"i i y y g g y g g g z g j g j * z & $ 2 uXyXa.9.,X<Xi.d.v.d.# y y y r r r y y y g u L v.y.y r r r r ",
"r r r y y y g n 0.U $ g $ j j j g z U > eXuXqXv.e.t.n.V.d.t.+ y y r r r r y p y $ u _ oXg.u r y r r ",
"r r u r y g g |  Xq.g y g g g g g g | q V.uXeXqX0XXX8XM.v.2 $ y r k k y p p p r i u n { ) y y r r r ",
"r y $ i g y g / q.R g y g j $ j j j _ f.t.uXyXqX<X.XXXb.d.> $ y g s.f.k p p y r t y a a a y r r r r ",
"u y u u x k b T R j u y y g y g j y z ! > M.s.9 9 9 9 e.2 & y r W /./.V p r r r i i a M M c k r r r ",
"y r y y u u h O.T j g g y y y g u h h u $ o D.H.I.H.A.Z.X $ i r g n n i r r r r r a V V c v u r r r ",
"r r r r u y N O.R y g g u y y g g u y y y @ D.U.U.I.L.Z.@ y r r r r r r r r r r y a a M m y r r r r ",
"r $ r r r a ....m y y p c u y g y y y y g y o P.U.P.S.o $ $ r r r r r r r r r r r i M V a r r r r y ",
"r r i u y N ....p i i a T Z ) ^ c y n p.| y $ 3 P.J.3 = ! W y r r r r r r r r r i m S S M i r r r r ",
"r r r x } { @...i i y f F G b..X_ y _ .Xa.g u & 4 3 O v h.h.k r r t r r r r r $ u  .l.>...m i r r r ",
"r r r } oXl.@.F a r r a D +.z.c.{ V b  .) u u y $ $ r i | | t r $ t r r r r r r h n.sXC.%...B m p p ",
"r r r n p. .E Z y r i u M X.<.4.1.+.G Z z y u i r r t t r r r r r r r r r r r r u l.XXc.<.%.%.O.m i ",
"r r r r i p N a r r r i a D X.<.<.1.=.A c y r y r u y r r r r r r r r r r r r r r a Q T N B ....m i ",
"r $ r r r r r r r r r r i i ..#.$X$X-.N a u y r y u $ i u r r r r r r r s u r r r r u a i p p m p r "
};
