/* XPM */
static char *result[] = {
/* columns rows colors chars-per-pixel */
"50 50 229 2 ",
"   c #170A1D",
".  c #2E0D11",
"X  c #370612",
"o  c #090A28",
"O  c #0A0D2D",
"+  c #170B26",
"@  c #19162B",
"#  c #0B0C34",
"$  c #070A39",
"%  c #120D38",
"&  c #0E103F",
"*  c #151735",
"=  c #11123B",
"-  c #251D26",
";  c #201B33",
":  c #1B203F",
">  c #27282A",
",  c #2F3034",
"<  c #333436",
"1  c #393538",
"2  c #46080B",
"3  c #55070B",
"4  c #460B14",
"5  c #4C1610",
"6  c #6C0506",
"7  c #790707",
"8  c #6B1513",
"9  c #493E1E",
"0  c #502928",
"q  c #483425",
"w  c #622A28",
"e  c #5E4B1D",
"r  c #6B511F",
"t  c #4F412A",
"y  c #645133",
"u  c #030543",
"i  c #080744",
"p  c #060A44",
"a  c #0B0B44",
"s  c #060748",
"d  c #060A4A",
"f  c #0B0D4B",
"g  c #130D44",
"h  c #180F45",
"j  c #120F4A",
"k  c #0C1245",
"l  c #0D124B",
"z  c #0F194D",
"x  c #131345",
"c  c #1B1345",
"v  c #151945",
"b  c #1C1A45",
"n  c #13134B",
"m  c #1B154B",
"M  c #141A4B",
"N  c #1B1B4A",
"B  c #070F52",
"V  c #0B0E52",
"C  c #0C1352",
"Z  c #0E1953",
"A  c #0D185C",
"S  c #131453",
"D  c #1C1651",
"F  c #141A53",
"G  c #1B1C54",
"H  c #14165B",
"J  c #181559",
"K  c #131B5C",
"L  c #1B1B5B",
"P  c #211646",
"I  c #231B46",
"U  c #2A1D46",
"Y  c #231B4A",
"T  c #201B56",
"R  c #221C54",
"E  c #1D2149",
"W  c #183F44",
"Q  c #1E2253",
"!  c #15235A",
"~  c #1A235B",
"^  c #24244C",
"/  c #2A234B",
"(  c #292649",
")  c #312549",
"_  c #332A4C",
"`  c #2E324D",
"'  c #38334B",
"]  c #262757",
"[  c #2C2C52",
"{  c #24235C",
"}  c #322851",
"|  c #2B3157",
" . c #333352",
".. c #3C3A52",
"X. c #393855",
"o. c #32345B",
"O. c #131E63",
"+. c #1D1D64",
"@. c #231E62",
"#. c #162264",
"$. c #1A2463",
"%. c #182766",
"&. c #1E256B",
"*. c #1D326E",
"=. c #192A72",
"-. c #1D3271",
";. c #232463",
":. c #2A2D67",
">. c #222268",
",. c #242C6B",
"<. c #22336C",
"1. c #283668",
"2. c #363567",
"3. c #272A76",
"4. c #2B2B74",
"5. c #312C73",
"6. c #263878",
"7. c #363977",
"8. c #41364E",
"9. c #443B53",
"0. c #473F6F",
"q. c #0E4850",
"w. c #3F4753",
"e. c #394274",
"r. c #464949",
"t. c #4C514F",
"y. c #484558",
"u. c #564C55",
"i. c #475758",
"p. c #565558",
"a. c #5B5D5B",
"s. c #65504F",
"d. c #645A5A",
"f. c #5F605D",
"g. c #6F6649",
"h. c #6A635B",
"j. c #796C5F",
"k. c #7B735A",
"l. c #4C4668",
"z. c #555768",
"x. c #504D71",
"c. c #615D69",
"v. c #5E6065",
"b. c #636462",
"n. c #696767",
"m. c #6E6A6A",
"M. c #6C6D6B",
"N. c #75726A",
"B. c #747573",
"V. c #767878",
"C. c #7D7D7B",
"Z. c #8D100E",
"A. c #AA0401",
"S. c #A6110E",
"D. c #B8120E",
"F. c #B71412",
"G. c #98270E",
"H. c #C70C06",
"J. c #DC0906",
"K. c #C7120C",
"L. c #D4160A",
"P. c #C31512",
"I. c #EA0602",
"U. c #F60200",
"Y. c #FE0400",
"T. c #D23B0F",
"R. c #ED310A",
"E. c #B65B1C",
"W. c #947120",
"Q. c #F15216",
"!. c #D17724",
"~. c #FB7B24",
"^. c #80765D",
"/. c #857A6C",
"(. c #7E817D",
"). c #9C8222",
"_. c #A68921",
"`. c #C69F25",
"'. c #FD8A2A",
"]. c #FE962D",
"[. c #D6AE27",
"{. c #E5A829",
"}. c #FAA62D",
"|. c #FACD2D",
" X c #8D865F",
".X c #8A8468",
"XX c #988A6A",
"oX c #82837A",
"OX c #979372",
"+X c #A2976C",
"@X c #A79976",
"#X c #AFA47A",
"$X c #C3B479",
"%X c #293C82",
"&X c #363384",
"*X c #393986",
"=X c #3F3E91",
"-X c #374688",
";X c #354B8F",
":X c #344893",
">X c #464781",
",X c #605E92",
"<X c #6F728B",
"1X c #857F85",
"2X c #198B9B",
"3X c #0D9BAF",
"4X c #24A0B1",
"5X c #519099",
"6X c #7EBEC7",
"7X c #25D6EF",
"8X c #3CE7FF",
"9X c #53EEFF",
"0X c #838582",
"qX c #868A87",
"wX c #8B8E8B",
"eX c #908888",
"rX c #8E918D",
"tX c #969588",
"yX c #939693",
"uX c #9C9E9C",
"iX c #9EA09E",
"pX c #A0A19F",
"aX c #A2A4A2",
"sX c #A7A8A7",
"dX c #ACADAC",
"fX c #AFB0AF",
"gX c #B1B1B1",
"hX c #C4B788",
"jX c #93E1EC",
/* pixels */
"g c g g a f S T 2.l.u.} f s i g i a P x a i i i a x ) I g h c g g i i i g g i i J L G S V i i i i u ",
"c b g a g n @.5.x.1XhXm.h s i i a a g g a a c c c u.d.) h g g h g g g g i g g f :.M.c.@.J f f i i i ",
"g g g g S @.4.&X>XeXhXn.j i i i i i i a a h m c / XX@XX.h h c g g g g g i i g J e.tX/.4.@.J f i i i ",
"a a g n @.5.&X&X&X0.l./ g i f g g g $ a g a g m ] x.x.2.m U U c h h g g g i j +.6.e.2.>.@.+.V f i u ",
"i g f J 4.&X=X&X4.L Y g a n n j h c g i g g n ~ 6.7.*X4.T U U h h P g g a j G ,.3.~ G L @.@.+.J i u ",
"g i j +.&X=X=X&X@.j j a a N { n x ) _ I g j L 7.-X;X-X@.m c P h g h h h g M $.3.$.l.c. .+.+.@.T j s ",
"i i J 3.=X,X<X5.J i a a f H K n g 9.XXu.P D ,.-X;X;X7.} 8.8.P h h a x P c { :.>.] N.$Xz.J O.+.O.V s ",
"s f J 4.*X1X#Xl.S i i p f ~ :.F g _ ^.9.c T 7.;X>X-X5.9.@XXX_ h g g c / D { ;.J n 9.n.[ f S O.+.K f ",
"s i S @.4.l.x.| j i u i F z.oX9.c c Y c c { 7.x.7.5.R 9.@X+X8.h h h j h J J T j a g h a s H %.,.L f ",
"u i V H T ] T F f s i a G B.#Xy.c h h h c D ;.:.{ T m Y 9.8.U P P D R R m h h g i g i i l H %.| M s ",
"s g i f f F G S f i i a M o.9.^ x c h c c h n m m Y c h c h c Y D R } } P h g i h g a f S A K M a u ",
"i i i i f S O.K f i i g V G G N c x x c h c h c m P c c h P h D D T Y U U c g h a i a j C f f p a u ",
"u i i u C O.#.K n x g n F G R / m I I x c I ( I P h c c U Y D D P m m P P h g g a i g g a f i i k i ",
"u i a f K #.K n g a f G ;.T { N x I ( I b y./.s.Y c c P c m D } } U h h P h g g g a n h g $ i i x x ",
"i i a S #.$.Q b a a n T { L G n x x x b P d.$XN./ P h j h D D 8./.s.P P ) U h g g U j.p.I a i i i a ",
"i i l K #.] m.p.x f n G L G n g x x a & % ' d.y./ m h g h m D } ^.u.P P P P h h g } XX^./ i u i u i ",
"g a l K G [ .Xh.m f F G G b x x x =   2 6 X ^ 9.( c x x b P n c ^ / c c h h h c c c } / h i u i u u ",
"k f f z z x ( ^ a k m n b b v = + 3 A.I.Y.J.3 * ^ b x k b b x c c c c & h h m h h g a g a i i i u u ",
"i a a f a a a i a k v n x b v o X Z.K.J.J.I.I.7 + b c x & & % % & % & k g m m R j g g g a g Y c s u ",
"i p p a a p k a i a k k x x = ^ g.y 4 Z.D.P.K.J.6   @ - > , 1 1 1 < > > @ + = U Y g g g h x b j f s ",
"i i v a p k k a i a a k k g x b u.u.b @ 8 S.Z.5 q r.p.f.h.b.b.b.v.b.b.f.p.r., > ; g g g i i f j V S ",
"i p v a p p p $ k a a k a g a x x v v b @ . r.a.b.v.h.h.b.b.n.n.M.M.v.b.n.b.b.a., . O f i g i j J J ",
"p u p p p p k k k $ # O @ @ - - @ # & @ < a.b.b.n.M.B.V.oX<X5XXXM.t w.r.h.B.M.n.1 Z.7 . $ i i i G J ",
"p s p $ d $ # @ 9 r W.!.!.!.!.E.E.G.. @ h.n.M.V.(.qXqXwXrXeXrX/.i.6XjX6Xw.V.0XV.0 S.P.S.4 $ g i f f ",
"p p p p * t ).[.}.}.}.].~.Q.R.R.L.L.5 > /.5XqXwXrXrXwXrXwXrXrXp.4X9X8X9X5Xs.rX0Xw I.I.J.K.4 & a i f ",
"a p p p - _.|.|.}.].].'.Q.R.R.L.H.H.2 , 1XwXwXwXwXwXrXrXwXwXrXt.2X7X7X7X2Xt.rX0Xw U.Y.U.J.4 & p i u ",
"k p l G Q : t W.`.{.{.}.].~.Q.Q.T.G.X < pXpXyXyXrXrXrXrXwXrXrXn.q.3X3X3Xq.m.rXwXw I.Y.I.8 j.9.a i u ",
"z C S &.1.$.! , > > t e r r e q - @ % + d.pXdXaXuXyXyXrXrXrXrXwXa.q.q.W a.yXyXpXs.H.H.X r.@Xz.f s u ",
"$.$.&.6.4.>.G E z & $ $ & z Z Z b l k a + 1 B.sXdXdXsXaXiXiXiXiXuXwXC.rXsXsXdXdXn.4 + $ n | G C f u ",
"6.%X6.>Xx.>.M M k k k z ! *.-.6.X.E k O 4 G.8 q v.wXaXdXfXfXfXfXfXfXgXfXdXuXC.r.@ $ i u u u d Z A f ",
"6.:X;XrX@Xo.M k & k z Z *.6.e.z..X<   3 F.P.P.D.2 + , r.a.B.(.(.qXC.M.a.r.> o $ & x i i u u s Z O.K ",
"3.:X;X<XB.] k k z k Z *.%X%X-.> . 7 S.P.P.J.I.7 + M l $ O O * : * O @ g.k.c p p a i u u u p f B A O.",
"3.%X:X-X*.z & v v k ! -.6.*.W E   6 D.I.U.U.6 o k k p k k d Z #.#.C l p.p.l i p u p u u u p u p B B ",
"O.=.%X%X*.! E v v z ! *.%.! z v & O . Z.A.3 O p p p p d p p d z l s u a a p u u u u p p u u u u u u ",
"C K %.<.*.! z k k z z Z z k k k & k k O o $ p k p p p p p p p d p u u u u p u u u a = i u u u u u u ",
"f f z F ! z k & $ k k k k k k v z k k k p d k & p & p p p p p p u u u u u u p p p k x x i u u u u u ",
"s p p p k k p k k k z k k k z : k k k k k k k p k p k ` ` z a p u p u u u p p u a a N b.y.a $ u u u ",
"u u p p p p k v w.v & k k k k z v k v  .` z z z z l E (.XX` a p u p u u s p p p a a [ +Xm.k u s u u ",
"u u p u p p k .. Xw.k p k k k k k v w.+XOX| Z O.#.%.| v.v.E p u p v x p s d d u i a N  .^ p i u u u ",
"i i u p p k v ` w.E k p p k k k l a W  X(.` l Z %.*.6.1.*.z p p k d.d.x d d p u p a f V s p i u u u ",
"a p p a b x n Q ! z k p p p k k l l k [ ^ v k k z ! %.%.$.Z p i ( N.k.M s u u u u s V V j x a p u u ",
"p u i a k a l $.~ l a x p p p k a l k a p p p p p f f l M B u i k Y N s u u u u u s n S S m a i u u ",
"u u u u i p C #.A k a k a p p k a k p p p $ p k p p s i a p u u i u u u u u u u a f V V f s u u u u ",
"u u u u u f O.O.C p p d n a p a p u p p k p p p p p a p p p u u $ u u u u u u u u d V C B u u u u p ",
"u $ u a s C O.O.d u s f Q F ^ } n p b p.X.p k a p u a x ^ ^ a u u u u u u u u u u B F H B s u u u u ",
"u u i N X.| %.O.d s i j G O.b.OX[ f [ XXa.k & k p u i v k.j.l u u s u u u u u u f o.z.7.K V d s u u ",
"u u u  .+Xz.$.K f u u f O.@.l.c.o.V M o.^ a a a u u u a ....s u u i u u u u u u a M.hXV.-.O.A B d s ",
"u u u N p.o.~ F s u s f V +.3.7.4.$.L F v p k p u u p $ u u u $ u u u u u u u u a z.tXz.,.=.=.#.B s ",
"u u u u i s C l u u u s f J +.3.3.3.:.G n a p p u $ p u u i u u $ u u u u p u u u f / Q C A O.O.B s ",
"u u u u u u u u u u u u s s O.>.&X&X>.C f i p u p a p s i u u u u u u u g i u u u u a f s d d B d u "
};
