/* XPM */
static char *e742ce1f74d34ed3fb40415ca35f8aa2zqj6r1nL25XHQkOq[] = {
/* columns rows colors chars-per-pixel */
"50 50 232 2 ",
"   c #0C071C",
".  c #3A070A",
"X  c #2B0D11",
"o  c #2C0A19",
"O  c #372F1F",
"+  c #0E0D2F",
"@  c #140D28",
"#  c #151229",
"$  c #1C1B2C",
"%  c #0B0C35",
"&  c #02053D",
"*  c #060938",
"=  c #0A0D3B",
"-  c #130E36",
";  c #0B1139",
":  c #161537",
">  c #251D27",
",  c #381429",
"<  c #241E37",
"1  c #26262D",
"2  c #332523",
"3  c #34302F",
"4  c #292736",
"5  c #36373A",
"6  c #4E090F",
"7  c #650707",
"8  c #750607",
"9  c #6F130F",
"0  c #6C1B17",
"q  c #512F1D",
"w  c #531E27",
"e  c #472827",
"r  c #443C31",
"t  c #3E403F",
"y  c #5D4D1F",
"u  c #7A661D",
"i  c #5C4B27",
"p  c #675725",
"a  c #030543",
"s  c #080744",
"d  c #060944",
"f  c #0B0B44",
"g  c #060748",
"h  c #060A4A",
"j  c #0B0D4B",
"k  c #130D45",
"l  c #180F45",
"z  c #120F4B",
"x  c #0C1244",
"c  c #0D124B",
"v  c #0D174C",
"b  c #131345",
"n  c #1B1345",
"m  c #151945",
"M  c #1B1B46",
"N  c #13134B",
"B  c #1B154B",
"V  c #14194B",
"C  c #1B1B4B",
"Z  c #070F52",
"A  c #0B0E52",
"S  c #0C1353",
"D  c #0E195A",
"F  c #131453",
"G  c #1C1651",
"H  c #141A53",
"J  c #1B1B54",
"K  c #14165B",
"L  c #181559",
"P  c #131B5B",
"I  c #1B1B5B",
"U  c #211646",
"Y  c #231B46",
"T  c #2A1D46",
"R  c #231B4B",
"E  c #201A54",
"W  c #221D54",
"Q  c #1D204A",
"!  c #1C3E42",
"~  c #1E2253",
"^  c #172558",
"/  c #1C225C",
"(  c #24234B",
")  c #2B234B",
"_  c #282549",
"`  c #2B2B4D",
"'  c #322747",
"]  c #332A4C",
"[  c #2B3649",
"{  c #38364B",
"}  c #232354",
"|  c #2C2C52",
" . c #23235B",
".. c #23295C",
"X. c #2A2959",
"o. c #322752",
"O. c #2C3157",
"+. c #333352",
"@. c #3B3A53",
"#. c #383855",
"$. c #32345B",
"%. c #131E63",
"&. c #1D1D64",
"*. c #231E62",
"=. c #162264",
"-. c #172767",
";. c #1A2463",
":. c #1E256B",
">. c #1D326E",
",. c #192A72",
"<. c #1D3271",
"1. c #232463",
"2. c #282D67",
"3. c #222268",
"4. c #242C6B",
"5. c #22326C",
"6. c #363566",
"7. c #272A76",
"8. c #2B2B74",
"9. c #312C73",
"0. c #243779",
"q. c #343676",
"w. c #40324E",
"e. c #433D54",
"r. c #473F6F",
"t. c #10454C",
"y. c #3F474F",
"u. c #334178",
"i. c #464848",
"p. c #4A4859",
"a. c #574C55",
"s. c #4B5452",
"d. c #565458",
"f. c #5D5C5B",
"g. c #664B4A",
"h. c #655C5A",
"j. c #5E615E",
"k. c #736549",
"l. c #68645B",
"z. c #7B735E",
"x. c #4B4968",
"c. c #4E4D6F",
"v. c #555666",
"b. c #615D69",
"n. c #546267",
"m. c #646563",
"M. c #686567",
"N. c #6C6C6B",
"B. c #756B63",
"V. c #75726A",
"C. c #6C6B71",
"Z. c #757776",
"A. c #777976",
"S. c #860908",
"D. c #99110F",
"F. c #A5110E",
"G. c #A9110E",
"H. c #B91310",
"J. c #92240E",
"K. c #C60A06",
"L. c #DB0703",
"P. c #C9110B",
"I. c #D41906",
"U. c #C51411",
"Y. c #E90905",
"T. c #F30602",
"R. c #FE0400",
"E. c #D2300C",
"W. c #EF320A",
"Q. c #9C6E22",
"!. c #CF4E16",
"~. c #EE5015",
"^. c #F46C1F",
"/. c #C97D25",
"(. c #E17020",
"). c #847A5D",
"_. c #847963",
"`. c #827C7A",
"'. c #7D827E",
"]. c #AF9022",
"[. c #DB9427",
"{. c #FC982D",
"}. c #EBAF2B",
"|. c #FDAB2E",
" X c #F8CA2D",
".X c #8F875F",
"XX c #8D8667",
"oX c #968969",
"OX c #838377",
"+X c #979475",
"@X c #A2976C",
"#X c #A79C74",
"$X c #AFA47A",
"%X c #C2B47C",
"&X c #283C82",
"*X c #363384",
"=X c #393887",
"-X c #3F3E91",
";X c #344B8D",
":X c #314694",
">X c #197B88",
",X c #484682",
"<X c #605E92",
"1X c #6F728B",
"2X c #857F85",
"3X c #0E8C9F",
"4X c #1A9FB2",
"5X c #48868F",
"6X c #7E8581",
"7X c #23D1EA",
"8X c #39E8FF",
"9X c #58EEFF",
"0X c #838582",
"qX c #878A87",
"wX c #8C8F8B",
"eX c #918586",
"rX c #8E918D",
"tX c #969588",
"yX c #929492",
"uX c #979996",
"iX c #9C9D9B",
"pX c #9FA19F",
"aX c #A0A19F",
"sX c #A4A5A3",
"dX c #A7A8A6",
"fX c #ACADAC",
"gX c #AFB0AF",
"hX c #B0B0AF",
"jX c #B1B1B0",
"kX c #C4B788",
"lX c #86CBD5",
"zX c #92EAF7",
/* pixels */
"k n k k f j F W 6.r.a.o.s g s f s f M l s s s f = l ' Y k k l k s k s s k s s k S E E L A f s a a a ",
"n M b f k z *.9.c.eXkXC.l g s f f k k k f f M l n a.h.' l l k l k k k k k k f j 2.C.b.*.L A k g s s ",
"k k k k G *.8.*X,XeXkXM.z s f s = s s f f k n n ) XX#X$.l l l l k l l k s k k K u.#X`.9.*.K j s s a ",
"f f k z &.9.*X*X*Xr.x.( k s s k k k s s k k z B } c.b.8.E T T l l l k s s s k &.0.u.6.3.*.L F j s a ",
"s k j L 8.*X=X*X8.E G k s N C k k n k s k k F C 6 , q.8.E T T l l U k k d b I 4.,.&.I I *.&.I L f a ",
"k s z *.*X-X-X*X*.z z k d J ~ N n ' ] Y l z V 6 U.L., W n n U l l k l l k N ;.7.:.p.h.$.&.&.&.I z s ",
"s g L 7.,X<X1Xq.L s d k j K %.F f e.oXa.U z o G.Y.R.K.o w.w.U l k k N U B X.2.3./ V.%Xv.K %.&.%.K g ",
"g j L 9.=X2XtXc.F s s d c / 2.H k +.).w.n - S.U.Y.R.R.G.k.oX] l k k n T J  .1.L B e.M.] j F &.&.K g ",
"g g F *.8.c.c.X.z s s s F v.OX@.U n Y n b X D.H.Y.R.T.P.q _.w.n l l l G G L E l s k l s g F :.5.I h ",
"a s A K J X.E F j s f d } V.$Xp.n l l n # 3 e q 0 0 w g.h.3 T U B G E E G l n f s k s j j P ;...V h ",
"a k f j z F H K j s s f F $.e.( b k k n 1 f.m.A.6X6XqXpXsXw.: R G E o.o.U l f f k k f j F P P C f a ",
"a s s s j F %.P j f d f c L J C n b b - 5 m.N.qXyXyXrXiXhXM.- E E E T T T l k l k f f j c S j s s s ",
"s a a g c %.%.H B k f N G I } ) B Y Y + s.j.A.A.f.d.Z.uXfXtX< E E B n U Y l k k f s k k f d s f b s ",
"a s d j P =.%.V b s z G W  .I C n Y _ $ j.M.j.y.5X>X! N.dXsX3 U o.R l l U l l f s k n k k f s d M x ",
"s s k F =.;.~ V f f N J 1./ J B b B : 1 j.m.y.lX9X7X3X! iXgXi.' _.g.U U ' U l k k T B.h.Y f s & s s ",
"s s z P =.X.B.d.b f H J I H N k x f = 3 l.f.s.zX8X7X4Xt.wXjXh.< ).a.U U T U n k k ] oXB.T k s s & a ",
"f f v P J | XXl.B j F J C M b b b n - 5 m.m.s.9X8X7X3Xt.yXhXN.@ R ) U n l n U l n l o.) k s a a a a ",
"b f c F v b _ ( f c C N C Q b b b M - i.m.N.m.n.5X3Xt.j.aXhXZ.@ n n k k k l n z l k f k f s s f a a ",
"s d f j d f s s f x M b m M b M { [ : i m.N.0XN.s.i.M.rXpXgXZ.@ n b k n l n U R z k k k f k R n g a ",
"s d f d d f x x s f f x b b b _ )..XM [ l.N.0XrXtXrXrXrXpXgXN.$ ] n n n n n R W R k k k k b B B j g ",
"s f b f f f x f s d x x f b b M p.a.: 5 m.N.'.rXwXwXwXyXsXgXm.k.B.) Y n n R W X.) b k k f s g z S F ",
"d s b x d d = d x f = f x x x b b m ; 5 m.M.'.rXwXwXwXyXsXfXd.k.B.) n n N W ..} ) k f k f s s j L L ",
"d d d f d f f x = x b x x b b x m b - 1 j.m.A.rXwXwXwXyXdXdX5 4 ) n n n C  .6.h.e.N s s s s f k G L ",
"d d & d d f x x x x x f x x - b M M B $ f.m.A.qXwXwXwXuXdXiX1 n n B n B W X.x.#Xh.B k f f f k f h A ",
"d d d d x b b x d x x x x x b m M M b @ s.m.N.qXwXwXwXuXgX6X@ n n l n C  . .| p.` B Y b j s k f s f ",
"f d g j v V V ~ Q x = d d x b b M m @ 7 r m.N.'.wXwXrXpXgXd.. + l l z B W C b f f x N j z M z d s s ",
"x d c J / I ..z.l.m d d x m x x b + 8 L.e l.m.'.wXwXyXsXiXe P.7 + k k k N b b f f f f j #._.@.j s a ",
"v S P ;.8.4.~ d.s.m v ; x x x v - 6 T.P.9 i.m.Z.qXrXuXfXC.0 U.L.6 % f f f b x s b x f b x.#Xd.c a a ",
";.;.>.0.8.4.J V m x x x v H %.D . L.Y.U.D.2 l.N.0XrXpXiXe F.H.Y.L.. & = s b f f d d f f m | J S h g ",
"0.0.&X,Xc.1.V m x x x v ^ >.<.^ S.R.L.H.0 i i.m.Z.rXsXf.r 0 H.U.R.S.* s f x = d f f s s a a h D D S ",
"0.:X;XrX#X$.b v ; x v D >.0.u.y.9 T.P.S.1 s.$ 3 3 5 t $ @.: 9 U.T.8 ; +.+.x a d b b s a a a g D %.P ",
"0.:X:X1XV.} x b v v v -.0.;X>.x.e K.U.o ; ; ; X . . X = F S o H.K.o Q XXXXM d d = f a a a d g S D %.",
"8.&X:X;X>.v x m m v ^ <.0.>.^ ! : 7 D.# x x + J.K.H.J.+ d x % 8 9 * m d.d.x g a d d a a a s a d Z Z ",
"&.3.&X&X<.P Q m m v ^ >.-.^ V m ;   . ; x x # !.I.P.E.# d d * .   g g g f a a a a & a a a d a a a a ",
"K K -.5.>.^ m x ; v v v v v x x x ;   = d x $ !.I.I.!.O d d &   & a a a a d d d d f b = a a a a a a ",
"j c v H ^ v x x x x v x x x x m x x x x x d 1 (.W.W.(.q a d d d a a a a a a d & f x x b d a a a a a ",
"a d d d x x d x v ; v ; x x v Q m = x v x x $ (.~.W.^.y ` v g d a d a a a a d d f b C m.p.f a a a a ",
"a a d d d d x m y.Q x v x x v ; m m m [ [ V $ [.^.~.{.u .X` x d d a a & d d g d s d | @XB.f a a a a ",
"a a d a d d x y..X[ d x x x x x x v [ @X+XO.$ /.{.{.{.p v.Q d a d b b d h h g a a f B +.( d d a a a ",
"a d a d x d m ` y.~ d d x x d v v v ` XXOX[ ; Q.{.{.}.r / H h a b h.l.x h Z a a g f j A j d d a a a ",
"f s s f M b m ^ / H f d d x d x c c v ` ( m ; Q.{.|.[.3 -.H g d _ B.).F a a a a a g j A A B f d a a ",
"d a d d k d c / / v x x d d d x f x x f a d * y |.|.].; V c a a b C M h a a a a a j F F N B f a a a ",
"& s a a d g D %.D x f x f d d x x x d d d d d 2 }. Xu * f g a a a a a a a a a a d c j A j g a a a a ",
"a a a d a j %.=.S d g f b x d f d g d d x d d + ]. XO a d a a a a a a a a a a a s g A S j a a a a a ",
"a a s f g S =.%.h a g z ~ F } +.b g M d.{ d f * p ].+ : _ ( g a a a a a a a a a a Z P P A g a a a a ",
"a a s M #...-.D h s g A P &.m.oX| h | oXf.x x x $ > a m z.z.b a a s a a a a a a h $.v.6.%.Z h a a a ",
"a a a +.#Xm.-.H h a a j K 3.c.b.$.S V $.} f x d & & a d @.@.s a a s a a & a a a N N.kXZ.,.%.D Z h a ",
"a a a M p.$./ J g a a d F &.7.q.8.1.P H m f x f a a f d a a a a a & a a a a a s x x.tXv.4.,.,.,.D a ",
"a a a a a h S j a a a a j K &.7.*X7.2.J N f s s a d d a & s a a a a a a a a a a a j ` W F D %.%.Z a ",
"a a a a a a a a a a a a a j %.3.*X7.:.K d d a a s x s d a s a a a a a a k f a & a a d h a h Z Z h a "
};
