/* XPM */
static char *result[] = {
/* columns rows colors chars-per-pixel */
"50 50 248 2 ",
"   c #330D16",
".  c #12092D",
"X  c #05083A",
"o  c #2D112F",
"O  c #1D2121",
"+  c #322A30",
"@  c #5A0A0B",
"#  c #540D18",
"$  c #740B0F",
"%  c #4F0723",
"&  c #4F3032",
"*  c #5F4E37",
"=  c #624635",
"-  c #7A6120",
";  c #030543",
":  c #090644",
">  c #060944",
",  c #0B0B44",
"<  c #060748",
"1  c #060A4B",
"2  c #0B0D4B",
"3  c #120D45",
"4  c #190847",
"5  c #120D4A",
"6  c #1C0B49",
"7  c #0C1144",
"8  c #0E114D",
"9  c #0F184E",
"0  c #141245",
"q  c #1B1345",
"w  c #13134C",
"e  c #1B144B",
"r  c #181A48",
"t  c #1A1A4A",
"y  c #0A0E52",
"u  c #0C1353",
"i  c #0E195A",
"p  c #131453",
"a  c #141A54",
"s  c #1B1C54",
"d  c #14165B",
"f  c #181559",
"g  c #131B5C",
"h  c #1B1B5B",
"j  c #260640",
"k  c #23064A",
"l  c #2C064C",
"z  c #230B4A",
"x  c #2C0B4C",
"c  c #30084C",
"v  c #320A4E",
"b  c #261848",
"n  c #2C0F51",
"m  c #350D51",
"M  c #390F54",
"N  c #3D0E5C",
"B  c #291653",
"V  c #3A1255",
"C  c #3B1A51",
"Z  c #3E125B",
"A  c #17364E",
"S  c #1B2158",
"D  c #29244B",
"F  c #393B47",
"G  c #242757",
"H  c #2C2C52",
"J  c #312D50",
"K  c #363655",
"L  c #131E63",
"P  c #1D1D64",
"I  c #1C1568",
"U  c #151777",
"Y  c #261C64",
"T  c #300C72",
"R  c #1A2463",
"E  c #182367",
"W  c #162E74",
"Q  c #252867",
"!  c #23336C",
"~  c #363567",
"^  c #272A76",
"/  c #2B2B74",
"(  c #352E76",
")  c #263478",
"_  c #4A1C51",
"`  c #41145D",
"'  c #52364D",
"]  c #423954",
"[  c #450D6A",
"{  c #421262",
"}  c #48126A",
"|  c #490D76",
" . c #4E0D7B",
".. c #510E7E",
"X. c #4D1377",
"o. c #51117C",
"O. c #104850",
"+. c #3D434C",
"@. c #0C4C75",
"#. c #394274",
"$. c #474948",
"%. c #4A475A",
"&. c #544C51",
"*. c #485558",
"=. c #595959",
"-. c #65565A",
";. c #5F615D",
":. c #64635E",
">. c #786E5E",
",. c #4C4668",
"<. c #555668",
"1. c #504D71",
"2. c #615B68",
"3. c #5F6068",
"4. c #646563",
"5. c #686667",
"6. c #6E6A6A",
"7. c #6B6C6A",
"8. c #6F706E",
"9. c #75726A",
"0. c #777876",
"q. c #8B0B0A",
"w. c #BA0905",
"e. c #AD130F",
"r. c #9F2E16",
"t. c #DC0A06",
"y. c #CA120B",
"u. c #D11507",
"i. c #C51512",
"p. c #E90603",
"a. c #FA0400",
"s. c #ED320A",
"d. c #956D27",
"f. c #CF4C14",
"g. c #F15717",
"h. c #D07624",
"j. c #F77221",
"k. c #82796C",
"l. c #7E807C",
"z. c #AD8C24",
"x. c #D98126",
"c. c #FB892A",
"v. c #FE972E",
"b. c #DBAB28",
"n. c #F8A72D",
"m. c #F5C92C",
"M. c #968969",
"N. c #8B8774",
"B. c #A4986D",
"V. c #A49971",
"C. c #C2B47C",
"Z. c #151B93",
"A. c #2E0E8B",
"S. c #0A2E8D",
"D. c #083885",
"F. c #2A3B83",
"G. c #383685",
"H. c #3F3E91",
"J. c #1E1AAA",
"K. c #2B16B6",
"L. c #1031AC",
"P. c #2B26B9",
"I. c #44088D",
"U. c #530C84",
"Y. c #550C89",
"T. c #580C8C",
"R. c #561084",
"E. c #5C0B94",
"W. c #560999",
"Q. c #5D0A9A",
"!. c #610A9C",
"~. c #4B09A9",
"^. c #5508A6",
"/. c #5B09A4",
"(. c #530AAB",
"). c #5B09AA",
"_. c #4D09B4",
"`. c #4C07B8",
"'. c #5708B7",
"]. c #590ABC",
"[. c #6209A4",
"{. c #6308A9",
"}. c #6608BC",
"|. c #0D5B88",
" X c #354990",
".X c #084EA5",
"XX c #0455BB",
"oX c #484682",
"OX c #6A6B8D",
"+X c #1F1DCC",
"@X c #2E12CA",
"#X c #3B13CC",
"$X c #3819CA",
"%X c #291DDB",
"&X c #3B19D5",
"*X c #1938C9",
"=X c #1E2ED1",
"-X c #1B35DA",
";X c #282BCB",
":X c #3825CB",
">X c #2525D8",
",X c #3525D3",
"<X c #2032D8",
"1X c #2D1BE5",
"2X c #3517E7",
"3X c #490DCC",
"4X c #5809C7",
"5X c #540BCA",
"6X c #4415CF",
"7X c #4A0BD4",
"8X c #5608D8",
"9X c #4517D3",
"0X c #6C06CC",
"qX c #6706DB",
"wX c #4222CC",
"eX c #5B0AE3",
"rX c #4916E5",
"tX c #5514E9",
"yX c #6409E4",
"uX c #6210E8",
"iX c #0A49CC",
"pX c #0354D6",
"aX c #0469D3",
"sX c #0457E6",
"dX c #0C51EA",
"fX c #0571F2",
"gX c #857F85",
"hX c #1891A2",
"jX c #159AAD",
"kX c #56A8B4",
"lX c #058EF2",
"zX c #25D5EE",
"xX c #7CC1CB",
"cX c #49ECFF",
"vX c #858784",
"bX c #8B8F8B",
"nX c #928E88",
"mX c #8E918D",
"MX c #969895",
"NX c #9FA09E",
"BX c #A0A19F",
"VX c #A3A4A3",
"CX c #A9A9A7",
"ZX c #ABACAB",
"AX c #B0B0AF",
"SX c #B0B1B0",
"DX c #C4B788",
"FX c #90DCE7",
/* pixels */
"3 q 3 3 , , p Y ~ ,.,.C 3 : : , : , b 0 : : , , X q D b . 5 q 3 3 3 : : 3 : , , p h s p 2 , : : > ; ",
"q r 3 , 3 w h ( 1.gXDX6.5 ; , , , , 3 , , 3 q q e &.-.J e 4 3 q 3 4 3 3 3 3 3 2 Q 8.2.Q f 2 , : : ; ",
"3 q 3 5 p B / G.oXvXDX5.0 : , : : , , , , 3 r e D M.V.K q q q 3 X q 3 3 X : 4 g #.nXk.( P d 2 , : ; ",
", X 3 w Y / G.G.G.,.,.D 3 : , , 3 , 3 X , 3 3 e G 1.1.~ b b b q 4 q 3 , , : 2 P ) #.~ Q Y I p 2 : ; ",
", , 2 h ^ G.G.G./ P b 3 , w t 2 3 q X 4 3 3 w S + K G./ e b b q q q 4 3 , 3 a ^ ! P s h Y Y h e : : ",
"3 , 8 Y G.H.H.G.Y 5 5 , , t S w q D J r 0 5 S H d.* Q Y e b z q 3 q q 3 3 w R ! E %.2.J P P P h 8 ; ",
": : f ^ G.OXOX( p : : 3 , d R w 3 ] M.&.b e Y + m.z.o v x c z q 3 3 q b e G Q Q S 9.C.<.d L I P p < ",
"; 2 d / G.OXC.,.p > > : 8 R Q a q C ' _ v V n - m.b.+ M m m c l 6 4 q b s G Q s w %.5.J , p L E L 1 ",
"; : d I / 1.1.H 8 > : > 9 <.0.C l l c M { ..V z.n.n.=  .| [ N m v v z e s a t w , 3 4 , < d R ! h : ",
"; , 2 d B G s p 2 > : : B 2.-.v c M { [ Y./._ b.n.n.d.I.).!.T.[ ` ` C B e q q , , , , , 8 i R H a > ",
": , 2 , 2 a a a 2 > : , e m c m { U.Q./.).^.' n.v.v.d.A.`.(.{.[.T.T.} ` n q 3 , 3 3 , , p i g a , < ",
"> , : : 2 p L i 2 : : 3 l v V | W.).^.'.].`.& v.v.v.h.I.8X5X4X'.[.[.!.X.` n z z 3 , , 2 8 u 2 > > > ",
": : ; > y g E a w 0 , 5 m Z X.E.~._.4X3X$XK.= v.g.j.x.o.8X#X#X5X].).{.!.X.` v l 3 , 3 : , : > , , , ",
": ; > 2 g E g w 7 , 5 n ` o.!.Q.~.5X7X#X&XK.* c.s.g.x.X.tX&X$X@X#X4X].{.!.X.V c 4 3 e 4 3 , : , 0 0 ",
"; : , a E R S w , , z Z o.Q./.'.qXeXyXyX&X+X' j.s.s.h.( 1X1X;X:X6X#XqX}.[.E.| M c b >.=.b X X : X , ",
"> , 8 g R G >.=.r 4 M o.E.)._.qX8X`.A.#X1X%XF g.s.s.f.^ -X>X>XL P.9X7XqX`.^.E.` c _ k.k.D , < : : ; ",
", 7 u g a H M.:.b l { Y./.(.4X6X:XT   J.<X-X! f.y.u.f.|.sXdXL.  I +X6XeX8X_./. .M v C H 3 : : ; ; ; ",
"0 , 8 9 w 7 D b k v ` E.^.].6XwXK.@ $ D.pXpX.Xr.y.y.r..XsXsXZ.q.% @X9XyX7X4X).Q.N m 6 3 3 3 : , ; ; ",
": > , , , 7 , 4 l M X./._.5XP.wXb w.e.S sXfXaX  @ @   aXlXfXD y.w.T 2XyX7X3X].[.| m l 4 , X b r < ; ",
", > > , > > 3 z v N T./.].6X:XL.$ p.i.@ XXlX@.+ O O O @.lX.X$ y.p.% %X&X7X@X4X/.Y.Z m 3 3 q r p 2 < ",
"> , 0 , , , 0 k m } /.(.5X$X,XZ.q.a.y.e.% |.*.MXkX7.;.F @.& e.u.a.$ J.%X;X$X7X).!. .V 4 , , , 5 y p ",
": > 0 , > > 3 l M  .^._.5X8XtX@X% a.t.i.q.+ MXVXV.l.7.;.+ e.w.p.p.# L.1X;X#X3X'.[.U.Z q , , < 5 f f ",
"> > X > > , 6 l V U.~._.8XyXtX2XZ.$ p.i.$ 5.AXMXN.nX8.4.$.$ y.p.@ L.*X>X;X6X3X].{.T.` q : X , : s f ",
"> > > > > , 6 l Z R.W._.yX9X2X1XXXW $ y.& MXCXmXbXnXl.4.:.# p.q..XsXiX*X;X&X7X4X{.T.` z 3 , 3 , , y ",
"> > > > 7 0 q x ` R.[.}.qX,X,X<XiXsXD.# &.CXNXmXbXbXvX5.4.& $ ! fXsXpX*X%X$X8X0X[.Y.` x 4 : , , : , ",
"7 > > 8 u a D n { T./.].8X:X;X=XXXsXfXA l.CXNXbXbXbXvX7.4.$.A lXfXpXiX=X&X9XqX4X[.U.Z v q t w : : > ",
"7 > 1 a S S G ] ` R.)._.9X:X;X>XiXdXfXO.NXCXNXbXbXbXbX0.4.=.O.lXfXpX*X1XrXyXqX4X^.U.Z c ] k.] 2 > ; ",
"9 u a R / Q S C ` R./.(.5X:X:X>X<XdXXX+.CXVXmXmXbXbXvX0.4.;.A fXsXsX-X1XrXeX7X`.). .V l %.V.*.2 < ; ",
"R E ! ) / E S b V o.!.~.4X:X:X>X>XdXS.=.SXNXmXmXbXmXmXl.4.:.F aXsXdX>X%X@X3X3X'.[.[ m k r H s 9 1 > ",
") ) F.oX1.Q a q m } T.(.].$X$X%X1X-XD.5.SXNXmXmXbXmXmXl.5.:.F pXsX*X>X>X&X@X4X).E.N v 4 ; < 1 i i y ",
")  X XmXV.K r 3 x V X./.(.3X6XuX2X1XW 7.SXNXbXbXmXmXmXl.4.4.+.L.XX*X>X;X$X6X'./. .M l : ; ; < i L g ",
"F. X XOX8.G 7 0 x v } Q.(.4X7XyX9X1XZ.0.SXNXmXl.=.;.l.vX7.;.+.D.*X>X;X9X#X4X).E.N m k : < ; : y i L ",
"^ F. X X! 9 7 r b c Z Y.^.~.5XeXwX,XU l.SXNX:.A @.hX* l.7.4.+.J.2X>X6X$X5X'.{.T.{ l : ; ; ; ; ; y y ",
"L E F.F.W i A X q x m } W.~._.qX8X,XA.8.SXMXO.hXzXcXxX$.7.4.F K.rX9X6XqX].).!. .V 4 > > ; : ; < ; ; ",
"i i E ! ! S 9 7 7 z l M  .W.^.'.qX9XA.5.SXvXO.jXzXcXFX*.:.:.J 4XyX8XyX0X{.!.U.{ z , 0 > X ; ; ; X ; ",
"2 8 9 9 S 9 7 7 X 0 x c ` o.E./._.7XA.&.SXMXA jXzXcXxX$.:.:.C K.8X8X`./.!.U.` n 3 7 3 0 : ; ; ; ; ; ",
": > > 7 1 7 7 X 7 7 q l m { R.Q.^._.~.F CXCX=.O.jXkX*.=.4.=.B 3X4X`.^.W...{ n : , , t 4.%., ; X ; ; ",
"; ; X > > > 7 r F r , q k m { R.Q.^.W.b MXCXMX4.*.+.7.0.:.*.T ].^.)./...{ v 4 ; X , J B.7.7 < > ; ; ",
"; ; > ; > 7 7 +.M.F 1 7 , 0 n ` R.T.W.N 0.ZXNXnXbXV.N.8.:.F I.{./.Y.[ M c l 3 ; > , w K D > ; ; ; ; ",
"; > ; > 7 > 7 H %.S 7 > 7 7 , x Z N [ [ $.ZXBXmXN.kXl.7.:.+  . .[ M m c k 4 < ; : 2 2 y 1 > : ; ; ; ",
", , > , r 0 9 S S 9 , > > 7 7 , z m m M o 0.4.' & & & $.F c { M m m x 6 < ; ; ; ; ; 8 y 8 e 7 > ; ; ",
"X ; > > X , 8 S S 9 7 7 > > > 7 , 6 k v j   w.p.a.t.e.q.  v m l k 6 4 < < ; ; ; > 1 p 8 5 e : ; ; ; ",
"< ; ; ; 7 , i E i 7 7 7 > > > 0 , 7 : 4 k o w.a.a.a.i.q.. . , : : > ; ; ; ; ; ; : 8 2 u 2 > < ; ; ; ",
"; ; ; ; < 2 i L u > ; 1 w 7 > , > > > > 2 X   p.a.p.w.  X : ; ; ; ; ; ; ; ; ; ; < < y u 1 < ; ; ; > ",
"; ; : X < u E E 1 < < 5 s a D J 8 > t =.K 7 X @ p.y.@ X D D X ; ; ; ; ; ; ; ; ; ; 2 g g y < ; ; ; ; ",
"; ; > t K G E i < < : y a R 5.M.H 2 H M.;.0 X X # @ . r k.>.0 ; ; : ; ; ; ; ; ; > ~ <.~ L y < < ; < ",
"; ; : J B.4.R i 1 ; ; 2 d Q ,.3.H p a K D > , > X X ; > K K > ; ; , ; ; X ; ; ; 9 7.DX0.W L i y 1 ; ",
"; < ; r *.~ S s > ; ; 2 u E ^ ( ^ R S a 7 7 , > ; ; > : ; ; ; X ; ; ; ; ; ; ; ; , <.nX<.Q W W E u < ",
"; ; ; ; : < u 8 ; ; ; : 2 p I ^ ^ ^ Q B 9 , > > > > > ; ; ; ; ; ; ; ; ; ; ; ; ; ; 8 D S u i L L y < ",
"; ; ; ; ; ; ; ; ; ; ; ; > 1 d ^ F.F.Y f , > > ; > , X < : > ; ; ; ; X ; 3 , ; ; ; ; : 2 > < 1 y < < "
};
