/* XPM */
static char *result[] = {
/* columns rows colors chars-per-pixel */
"50 50 244 2 ",
"   c #320B13",
".  c #390816",
"X  c #181323",
"o  c #060A3B",
"O  c #2A1229",
"+  c #2B1438",
"@  c #25272A",
"#  c #372C2E",
"$  c #4B0D10",
"%  c #590B17",
"&  c #78070A",
"*  c #6E0C12",
"=  c #561021",
"-  c #502A2A",
";  c #622725",
":  c #705525",
">  c #030543",
",  c #090644",
"<  c #060944",
"1  c #0B0B44",
"2  c #060748",
"3  c #060A4B",
"4  c #0B0D4B",
"5  c #120D45",
"6  c #190847",
"7  c #120D4A",
"8  c #1C0A49",
"9  c #0C1144",
"0  c #0D114D",
"q  c #0F184E",
"w  c #141245",
"e  c #1B1345",
"r  c #1C1B45",
"t  c #13134C",
"y  c #1B144B",
"u  c #151949",
"i  c #1A1A4B",
"p  c #0A0E52",
"a  c #0C1353",
"s  c #0E195A",
"d  c #131453",
"f  c #141A54",
"g  c #1B1C54",
"h  c #14165B",
"j  c #181559",
"k  c #131B5C",
"l  c #1B1B5B",
"z  c #2A0944",
"x  c #23064A",
"c  c #2C064C",
"v  c #240B4A",
"b  c #2C0B4C",
"n  c #31074D",
"m  c #32094F",
"M  c #251948",
"N  c #350D51",
"B  c #390F54",
"V  c #390D5A",
"C  c #2E1350",
"Z  c #281954",
"A  c #361553",
"S  c #3A1155",
"D  c #3E125B",
"F  c #17334A",
"G  c #1B2257",
"H  c #28254B",
"J  c #33284B",
"K  c #3A394A",
"L  c #2C2C52",
"P  c #2F2D54",
"I  c #242759",
"U  c #373556",
"Y  c #131E63",
"T  c #1D1D64",
"R  c #1D146C",
"E  c #2F126B",
"W  c #1A2463",
"Q  c #192467",
"!  c #0F3174",
"~  c #252767",
"^  c #25316A",
"/  c #363567",
"(  c #272A76",
")  c #2B2B74",
"_  c #312C72",
"`  c #273678",
"'  c #363378",
"]  c #40145E",
"[  c #493452",
"{  c #410D64",
"}  c #450C6C",
"|  c #421262",
" . c #481467",
".. c #490E74",
"X. c #4E0D7A",
"o. c #500E7E",
"O. c #4E1175",
"+. c #51117C",
"@. c #473F6F",
"#. c #184449",
"$. c #34424A",
"%. c #0A496D",
"&. c #394274",
"*. c #454749",
"=. c #4D4C51",
"-. c #484959",
";. c #585858",
":. c #675559",
">. c #5F615F",
",. c #66645F",
"<. c #786E5E",
"1. c #4C4668",
"2. c #4F4F6F",
"3. c #555668",
"4. c #615B68",
"5. c #596164",
"6. c #646462",
"7. c #686667",
"8. c #6B6C6A",
"9. c #716D66",
"0. c #74726B",
"q. c #6C6B70",
"w. c #777876",
"e. c #930E0C",
"r. c #B00F0C",
"t. c #B6120D",
"y. c #992E19",
"u. c #CB0A04",
"i. c #D90603",
"p. c #CA130A",
"a. c #CA1310",
"s. c #EA0804",
"d. c #FB0501",
"f. c #DD2107",
"g. c #EF360B",
"h. c #A0681F",
"j. c #D74F14",
"k. c #EF5415",
"l. c #F26D1E",
"z. c #D57824",
"x. c #82796C",
"c. c #D08F27",
"v. c #EF8D29",
"b. c #FD982E",
"n. c #D1AD27",
"m. c #F5AA2D",
"M. c #F6C62C",
"N. c #968969",
"B. c #8B8774",
"V. c #A4986D",
"C. c #A49971",
"Z. c #181990",
"A. c #271595",
"S. c #09328C",
"D. c #2A3B83",
"F. c #383685",
"G. c #3F3E91",
"H. c #1D1BB2",
"J. c #3115AE",
"K. c #0739A9",
"L. c #4F0C81",
"P. c #530D83",
"I. c #560C89",
"U. c #590C8C",
"Y. c #5C0B95",
"T. c #560998",
"R. c #5D0A9B",
"E. c #610A9C",
"W. c #4B09AB",
"Q. c #5609A5",
"!. c #5C09A5",
"~. c #5409AB",
"^. c #5B09AB",
"/. c #4B08B7",
"(. c #5309B4",
"). c #5808BA",
"_. c #6209A4",
"`. c #6308AA",
"'. c #6A07BE",
"]. c #0E4894",
"[. c #364584",
"{. c #354B95",
"}. c #054FB3",
"|. c #0456B9",
" X c #484682",
".X c #6A6B8D",
"XX c #3412CC",
"oX c #3718CA",
"OX c #271DDC",
"+X c #3918D5",
"@X c #1D2CCF",
"#X c #1939CE",
"$X c #1E32D6",
"%X c #262BCB",
"&X c #3726CC",
"*X c #2625D9",
"=X c #3826D1",
"-X c #2232D8",
";X c #2E1BE4",
":X c #3219E4",
">X c #4A0CCC",
",X c #5709C7",
"<X c #4616CE",
"1X c #4B0CD4",
"2X c #5908DA",
"3X c #4213D1",
"4X c #421BD1",
"5X c #4C17D9",
"6X c #6B06CA",
"7X c #6906DB",
"8X c #4121CF",
"9X c #5B0BE3",
"0X c #4914E7",
"qX c #6609E5",
"wX c #094DCD",
"eX c #0354D8",
"rX c #0473DD",
"tX c #0F4CE8",
"yX c #0656E6",
"uX c #0365E8",
"iX c #0779FA",
"pX c #857F85",
"aX c #0E8899",
"sX c #1E9BAC",
"dX c #4D9CA8",
"fX c #068EF2",
"gX c #1EC8E0",
"hX c #23D1EA",
"jX c #36E7FF",
"kX c #4CEDFF",
"lX c #858885",
"zX c #8C8F8B",
"xX c #908989",
"cX c #8D918D",
"vX c #93938C",
"bX c #979896",
"nX c #A2A4A2",
"mX c #A7A8A7",
"MX c #ACADAC",
"NX c #B0B0AF",
"BX c #B0B0B0",
"VX c #C4B788",
"CX c #89D4DF",
"ZX c #8DEEFC",
/* pixels */
"5 e 5 5 1 1 d T / 1.:.A 4 > , 1 , , r w 1 , , o 1 e H M 5 6 e o 5 5 , , 5 o 1 4 d l g d 7 2 , , > > ",
"w r 5 5 5 t T _ 2.pXVX4.7 > , 1 1 5 o 5 1 1 e e M =.:.J 5 e 6 e 5 6 5 , 5 6 5 0 ~ 0.3.~ j 7 4 , , , ",
"5 5 5 5 y T _ F. XxXVX7.e , 1 1 1 , 5 5 1 5 e e H B.C.U 7 + e 5 o e 5 5 , , 5 d &.vXx._ T j 7 , , , ",
"1 5 1 t T _ ' F.F.@.1.H 1 1 , 4 5 1 , 1 5 5 5 t I 2.4._ y M M M 6 e 5 1 , 5 4 T ` &./ ~ ~ j a 4 > > ",
", 5 7 j ) F.G.F.) Z g 5 1 t u t 5 e 5 o e 5 u ~ ' [.[.^ g M M e 6 M 5 5 1 5 j ^ ( G g T T T l j 4 > ",
"5 4 7 T F.G.F.F.T 7 w 1 1 i G t w J J z e 7 l ` [.' _ Z y M v e 5 e e 5 1 t ~ ^ Q -.6.P T T T l 7 > ",
", , h ( G. X.X' j , 1 1 4 h k t 5 [ N.=.M 8 ~ ' ' A m n c b z e 5 5 e M y I ~ Q I 0.VX3.j h T T p 2 ",
"2 , h _ F.pXVX1.d 2 , , 0 G ^ g 5 J =.] m B D D | D S S B m n c x 5 e M g I ~ f y [ 6.L 7 d Y Q Y 3 ",
"> 2 h T ) 1.2.P 4 2 < > f 3.w.A c c n B | +.P.I.I.P.P.L.X.} D A m m M e f f Z t 5 5 w 1 , a W ^ l 2 ",
"> 1 4 h l L Z d 4 2 1 1 Z 4.:.n m B |  .I.E._._.`._.T.~.!.R.U.} ] ] S C y e e , , 1 , 1 0 k W ^ i 1 ",
", 1 4 4 4 f k d 4 > , 1 y N c B | L.R.!.!.~.^.).).6X)./.(.~.^._.U.I.O.] C e 5 , 5 5 1 4 d s f i 1 > ",
", 1 , , 4 s G s 4 , 1 5 x m D O.T.!.^.(.).,X>X>X1XqX7X2X1X,X,X(._.E.E.O.] C x M 5 1 1 7 0 a 3 1 1 > ",
"> > > > a k Q d u w 1 7 N D O.T.W./.,X>XoXoXoX8X4XoX3X9X2XoXoX,X,X`.`.E...] N z 5 , 5 , 1 1 > , 9 , ",
"o , 1 0 k Q k t 5 1 7 C | +.Y.R.W.,X1XoX+X&X%X%X%X*X+X0X9X+X&XoXXX,X).`.E...] n 6 5 t e 5 5 , 1 w w ",
"> , 1 d Q W G t 1 1 v D +.R.!.(.7XqXqXqX+XOXOX*X-X@XOX;X;XOX%X&X4XoX7X'._.Y.} B z J <.:.M o , < , 1 ",
", 1 0 k W I <.;.w 8 V O.Y.!.(.7X1X+X5X0X:X*X-X#X|.|.wXwX@XH.XX@X&X4X>X7X/.Q.E.{ n A x.x.H 1 > , o > ",
"1 1 a k f L N.,.M c D I.!.~.,X8X4X&X;X;X$XwXtXyXyXyXyXK.O & % E H.OX3X2X2X(.!.X.N n A J 5 o , > > > ",
"w 9 0 q t 9 H M x N | Y.~.,X<X8X&X*X#XwXeXeXyXiXiXiX}.$ i.d.d.r.= R +XqX1X,X^.R.{ n v w 1 , , , > 2 ",
"< 2 1 1 1 1 , 6 c V X.!.W./.A.A.! Z.! S.K.|.rXfXfX}.% s.s.a.p.t.e.  R qX1X>X)._.} B v 5 1 w M e > > ",
", , 1 < 1 < 1 x n D L.} A J $.;.6.6.8.,.5.$.K %.%.$ p.p.a.t.& + ! K.J.+X3XXX,X!.I.D A 6 5 w r t 3 3 ",
"< 1 w 9 , 1 w c c + [ 7.zXnXMXNXBXBXBXBXBXmXmXcX0.*.; * t.- ].rXeXtX-XOX&XXX,X^._.X.S e 1 1 4 7 j d ",
"o < w 1 > > 1 O   6.mXMXMXmXnXcXbXnXnXnXnXmXmXmXMXMXvX>.# ! fXiXeXyX-XOX%XoXXX^.`.I.D 6 , , , 4 d j ",
"o < < 1 > o   r.a.7.nXbXbX8.#.#.$.6.cXcXcXvXbXbXbXnXmXMXcX=.%.fXwX].^ P [ - [ ]  .D A 7 1 6 , 1 g j ",
"< < < < o . u.d.s.- cXcXw.#.aXsXaXF 0.cXcXzXzXcXvXvXbXbXnXbX# X ; j.j.l.v.m.b.n.c.h.: @ o o 5 1 4 4 ",
"< < < o . i.d.d.s.; cXcX=.aXhXhXgXaX=.cXzXzXzXzXcXcXcXcXvXzX@ $ u.p.f.g.g.k.v.b.m.m.M.n.h.X 1 1 , 1 ",
"< < 3 o % p.s.d.s.; lXcX=.dXkXjXjXsX;.zXzXzXcXcXzXzXzXlXlXw.@ $ u.i.f.g.k.l.b.b.b.m.M.n.: @ w 1 , > ",
"9 3 0 g M % r.a.t.- w.cX0.=.CXZXCX=.0.zXzXzXcXcXlXlXw.w.<.,.@   y.j.j.l.v.v.z.z.h.h.- + K 0.U 1 > > ",
"q a q Q ^ G . e.e.# 8.q.w.;.$.5.=.,.lXlXlXlXw.w.0.8.8.6.>.*.%.|.].` / [ [  . ...I.E A b -.C.3.0 > > ",
"W W ! ` ) Q u O   # 6.6.,.8.>.>.8.8.8.8.8.8.6.>.>.,.6.=.@ %.fXfXuXtX*XOXXXXX>X).^...B 8 u L g a 4 2 ",
"` D.D.2.2.~ f e + + # K ;.;.,.,.6.6.6.6.6.6.>.>.=.*.- * e.- |.uXtX#X;X@XoXXX,X^.T.V n 6 > > 3 q s a ",
"` {.{.vXC.U w w c S { ..Z M J K *.*.*.$.*.# L F F & i.a.a.t.* l S.K.%X&XoX>X)._.X.B c 6 > > > s Y k ",
"( {.{..Xq.I 9 w b N } R.~.)./.~.J.H.Z.%.K.|.eXuXrXW e.s.i.a.a.r.& O R 4XXX,X^.R.V N 6 > > < 3 a s Y ",
"( D.{.[.^ q 9 u e c V I.Q.W.2X2X4X=X*X$XwX-XtXeXyXyX! * s.d.d.u.* b J.XX2X(._.I.] c , > > > > 2 3 p ",
"Y Q D.D.! F u u e c N  .T.W./.7X5X8X=X-X;X-X-XwXwX|.wX! % e.* n J.>X3X7X).`.E.X.D 6 o < > > > > > > ",
"a s Q ^ ^ W u 9 9 v c B +.T.T.).7XoX8X&X%XOX;X;X*X%X#X@XH.Z.H.9XqX2XqX'.^.E.P.D v 1 w 1 > > > > > > ",
"0 0 q s f q 9 9 9 9 z n D P.Y.Q.(.,X4X&X&X&X0X0X:XOX*X@X%X&X+X3X1X2X/._.E.P.| b 1 w 9 w , > > > > > ",
"> > < < 9 9 9 < 9 9 e c N | P.R.~.W.).>XoXXX2XqX5X&X+X8X8XoXoX>X,X/.W.R.o.| m 4 1 1 H 6.-.1 > > > > ",
"> > < < < < 9 r K r 1 e v N | P.R.!.W.(.,X,X1X2XqX2X1X3X>X>X,X(.^.^.R.o.] N 8 > 1 > L V.9.1 < < > > ",
"> < < > < < 9 $.N.K 9 3 1 w C | +.U.Y.Q.Q.~././.).6X,X).(.~.~.!._.I.} B n x 6 > < 1 u P H 2 > > > > ",
"< < > < 9 < u L $.G 9 < 9 9 9 C D | { P.T.!.Q.W.Q.!.!.!._.E.Y.X.} V N c x 6 2 > < 1 4 p 3 1 o > > > ",
"1 , < 1 r w u G I f 9 < < < 9 9 v N N V | O.P.T.U.U.U.U.I.P.| B B n m 8 2 > > > > > p 0 p e 0 > > > ",
"o > < < 9 3 0 G G q 1 w < o 3 9 1 8 x n m N B V | | | | | D B c x v t > 2 > > > 2 , y a 7 y 1 > > > ",
"> > > > o 2 s Q s 9 9 9 1 < < w 1 9 , 5 x c c n m b v 8 6 5 , , > > > > > > > > 3 0 0 a 4 2 > > > > ",
"< > > > > 4 Y Y a 3 < 2 t 9 < < 1 > 1 < 1 1 5 6 6 5 1 > , > > > > > > > > > > > > 2 p a 4 > > > > 2 ",
"> > > 1 , q Y Y 4 > , 0 g u I P t < i ;.U 9 9 < , < 1 w + H 9 > > > > > > > > > > a h s a 2 > > > > ",
"> > < r U ^ Q k 3 > 2 a f W 7.N.L 4 L N.;.9 o 9 , > > r x.0.9 < > , > > > > > > 3 P 3.&.Y p 3 > > > ",
"o > > U C.5.W k 3 > > 4 h ~ 1.4.P a f U H 9 1 9 < > > 1 K U 1 > > , > > > > > > 9 8.VXw.^ R s p 3 > ",
"> > > i -.U G g 2 > > , a T ( ' ) W l q u 3 1 < o > < < > > > > > > o > > > > > 1 3.vX4.Q ! ! Y a 2 ",
"> > > > > 3 a 4 > > > > 4 h T ( ( ( ~ Z t 1 < < < < < > > > > > > > > > > > > > > 4 H g a k Y Y p 3 ",
"> > > > > > > > > > > > > 3 h ( D.F.~ d , 2 < > > 9 < o > > > > > > > > 5 1 o > > > 4 1 2 3 3 3 3 2 "
};
