/* XPM */
static char *f7e21b3bf27949f5d8d2d1727354145fPentwnFWfynjPf8I[] = {
/* columns rows colors chars-per-pixel */
"50 50 246 2 ",
"   c #310C18",
".  c #0F0B38",
"X  c #2E142E",
"o  c #24272E",
"O  c #3A3433",
"+  c #480A15",
"@  c #510D13",
"#  c #6D070D",
"$  c #731012",
"%  c #4B1130",
"&  c #51302D",
"*  c #622A28",
"=  c #4A412D",
"-  c #704E32",
";  c #030543",
":  c #090644",
">  c #060944",
",  c #0B0B44",
"<  c #060748",
"1  c #060A4B",
"2  c #0B0D4B",
"3  c #130D45",
"4  c #190847",
"5  c #120D4A",
"6  c #1C0A49",
"7  c #0C1144",
"8  c #0D114D",
"9  c #0F184E",
"0  c #141345",
"q  c #1B1345",
"w  c #191A47",
"e  c #13134C",
"r  c #1B144B",
"t  c #1A1A4B",
"y  c #0A0E52",
"u  c #0C1353",
"i  c #0E195A",
"p  c #131453",
"a  c #141A54",
"s  c #1B1C54",
"d  c #14165B",
"f  c #181559",
"g  c #131B5C",
"h  c #1B1B5B",
"j  c #25074A",
"k  c #2C064C",
"l  c #240B4A",
"z  c #2B0A4C",
"x  c #30074D",
"c  c #32094F",
"v  c #2E124E",
"b  c #251948",
"n  c #350C51",
"m  c #390F54",
"M  c #3D0E5C",
"N  c #2A1955",
"B  c #381753",
"V  c #391155",
"C  c #3D125B",
"Z  c #15324D",
"A  c #1B2257",
"S  c #28254C",
"D  c #363947",
"F  c #2C2C52",
"G  c #242759",
"H  c #312C51",
"J  c #363655",
"K  c #131E63",
"L  c #1D1D64",
"P  c #1D176A",
"I  c #181574",
"U  c #2C136B",
"Y  c #1A2463",
"T  c #182367",
"R  c #0B316D",
"E  c #182874",
"W  c #232363",
"Q  c #252968",
"!  c #22326B",
"~  c #363567",
"^  c #272A76",
"/  c #2B2B74",
"(  c #283679",
")  c #363378",
"_  c #41155D",
"`  c #4B3B51",
"'  c #450D6B",
"]  c #421262",
"[  c #48126A",
"{  c #4A0D75",
"}  c #4E0D7A",
"|  c #500E7E",
" . c #4E1175",
".. c #51117C",
"X. c #473F6F",
"o. c #114652",
"O. c #364451",
"+. c #0B4B73",
"@. c #394274",
"#. c #454948",
"$. c #4F4E54",
"%. c #464758",
"&. c #585958",
"*. c #665357",
"=. c #5E605B",
"-. c #67635F",
";. c #776F5C",
":. c #4C4668",
">. c #555668",
",. c #504D71",
"<. c #615B68",
"1. c #5F6165",
"2. c #646462",
"3. c #686667",
"4. c #6E6A6A",
"5. c #6B6C6A",
"6. c #74726B",
"7. c #787977",
"8. c #8E100F",
"9. c #A90D0A",
"0. c #B9120E",
"q. c #972B17",
"w. c #C50B04",
"e. c #DC0906",
"r. c #C7120C",
"t. c #D4160A",
"y. c #C41613",
"u. c #EA0602",
"i. c #FD0400",
"p. c #D13B0D",
"a. c #ED310A",
"s. c #966F24",
"d. c #F15215",
"f. c #E0621C",
"g. c #D07723",
"h. c #FB7B24",
"j. c #83796E",
"k. c #7E817D",
"l. c #A28522",
"z. c #FD8A2A",
"x. c #FE962E",
"c. c #CEA526",
"v. c #E5A829",
"b. c #FAA62D",
"n. c #FACD2D",
"m. c #968969",
"M. c #91896F",
"N. c #81827F",
"B. c #A4986D",
"V. c #A49971",
"C. c #C2B47C",
"Z. c #181F8D",
"A. c #2E1287",
"S. c #0F3691",
"D. c #2A3B83",
"F. c #383685",
"G. c #3F3E91",
"H. c #1D19AA",
"J. c #2C18AF",
"K. c #1534B5",
"L. c #2E23B8",
"P. c #4B0E85",
"I. c #530E82",
"U. c #560C8A",
"Y. c #590C8C",
"T. c #560997",
"R. c #5C0B95",
"E. c #5C0A9A",
"W. c #610A9C",
"Q. c #4B09AA",
"!. c #5609A5",
"~. c #5C09A5",
"^. c #5309AB",
"/. c #5A09AB",
"(. c #4D09B6",
"). c #5309B3",
"_. c #5808BB",
"`. c #6209A4",
"'. c #6208AA",
"]. c #6A07BE",
"[. c #0A478E",
"{. c #364584",
"}. c #354B95",
"|. c #0147AC",
" X c #0354BC",
".X c #484682",
"XX c #6A6B8D",
"oX c #2F14C7",
"OX c #3C14CC",
"+X c #3719CA",
"@X c #281DDC",
"#X c #3A18D4",
"$X c #1A37CC",
"%X c #1D2ED1",
"&X c #1E2FDB",
"*X c #1938DA",
"=X c #272BCB",
"-X c #3625CB",
";X c #2724DA",
":X c #3622D3",
">X c #2231D3",
",X c #2E1AE6",
"<X c #3418E5",
"1X c #4B0DCD",
"2X c #5708C6",
"3X c #550BCA",
"4X c #4514CE",
"5X c #4A0CD4",
"6X c #5809DA",
"7X c #4615D5",
"8X c #411BD1",
"9X c #6B06CA",
"0X c #6906DB",
"qX c #5C0BE4",
"wX c #4C15E6",
"eX c #6609E4",
"rX c #094CCE",
"tX c #0453DA",
"yX c #0465D6",
"uX c #0457E6",
"iX c #0B54EE",
"pX c #0467E8",
"aX c #066EF4",
"sX c #857F85",
"dX c #198B9B",
"fX c #189DB0",
"gX c #519099",
"hX c #0587F3",
"jX c #7EBEC8",
"kX c #25D6EF",
"lX c #3CE7FF",
"zX c #52EEFF",
"xX c #858885",
"cX c #8C8E8B",
"vX c #928D88",
"bX c #8E918D",
"nX c #989A97",
"mX c #9EA09E",
"MX c #A0A19F",
"NX c #A3A4A3",
"BX c #ADADAC",
"VX c #AFB0AF",
"CX c #B1B1B1",
"ZX c #C4B788",
"AX c #84B9C1",
"SX c #93E1EC",
/* pixels */
"3 q 3 3 , , p N ~ :.:.B : : : , : , b . , : : : , q S b q q q 3 3 , 3 , , , , , p h s p 5 2 : : ; ; ",
"q w 0 3 3 p L / ,.sXZX4.0 ; , , , , 0 3 , , q q q $.*.H 3 . 3 4 3 3 3 : 4 . 3 2 Q 6.<.W f 5 : : ; : ",
"3 3 3 5 p N / F..XvXZX3.0 : , , , , : , , 0 q q S m.V.J b . q 4 3 3 3 3 : , 4 g @.vXj./ W f 2 : : : ",
", . , e L / F.F.F.X.:.S 3 : : , 3 : , , , 3 3 t G ,.<./ r b S q 4 q 4 3 , : 2 L ( @.~ Q P h y 2 : ; ",
", , 5 f / F.F.F./ N s 3 : 5 t 2 3 q , , 3 3 e W ( F.@.Q N b b q 3 b 3 3 , 3 f ! ! Y f h W P L p 2 ; ",
", : e P F.G.G.F.L e 3 , : t G e q S F X 3 5 A ( {.) ) G r q b q 3 0 q . 3 e Y ! Y :.<.J h P L G 5 ; ",
", , p ^ F.XXXX) f : : , 8 g Y e 0 ` m.$.b 6 W ) ) B x x z z j l 4 3 q b r G Q Q G 6.C.>.s d L L y < ",
"; 2 P I F.sXC.:.p : : > 8 A Q s 3 B *.n n m C ] ] ] _ V n c x k j 5 q b s G W s e ` 2.H 2 p K T K 1 ",
"; < f L / ,.,.F y : : : e >.7.B k k n m ] ..I.U.I.I.I.I.{ ] M m c v b t p f s e , 3 0 , : i T ! h 2 ",
"; : y p h F s e 2 : , : G <.*.x n m M [ U.W.`.`.'.`.E.!.~.~.Y.' _ _ V v r q q , , , , : 8 g T F t > ",
": , 5 2 8 p a i 2 > : , l v z n M I.E.~.~.^./.)._.9X_.(.).)./.`.Y.U. ._ v q 3 : 3 3 , 5 p i g a , ; ",
"> : : : 2 p g g 8 : : 3 j c C { T./.~.)._.3X3X1X6X6XeX6X5X3X2X/.`.W.W. ._ v l l 3 : , 2 8 u 2 > : ; ",
"> ; > > u g T a e 0 , 5 n C ..T.Q.(.2X1XOX+X+X8X#X+X7XeX6XOXOX1X_./.'.W. ._ n k 3 : 3 3 3 : > : 7 , ",
". : : 2 i T g e 7 : 5 v ] ..R.E.Q.3X5XOX#X=X=X=X=X:X@XwXqX#X-X+XOX3X_.'.W.{ C c j , q 0 , : : , 0 0 ",
"; : 2 p T Y A e , , l C ..E./._.0X0XeXeX<X@X@X;X>X%X@X<X,X@X=X-X8XOX0X].`.R.' m x b -.*.b . : ; > > ",
"; : 8 g Y G ;.&.w 4 V } R.~.^.0X5X#XwX#XJ.=X&X$X X XrXrX%X;X@X%X-XOX5X0X(.!.R._ c B m.j.S : > > . ; ",
", 7 8 g A F m.4.b z ] I.~.Q.2X7X-XL.U % # X K.iXiXuXuXtXtX*X$X%X%X;XOXqX6X(.~.} m c B S 3 : : > ; ; ",
"0 , 8 9 9 0 w b j n ] R.^._.5XJ.U @ 9.u.i.e.+  XaXaXaXpXuXpXtX X$X,X7XeX5X2X/.E.M c j 5 , . : > ; ; ",
": > , 8 : . , 4 k m  .~.^.3X-XN   8.w.e.t.u.u.$ [.hXhXhXyXyXrXK.[.oX#X6X5XOX_.`.' m z 3 , 3 b q : ; ",
"> > > , > > , j k M R.~._.OX-XK.J.I % 8.0.y.t.e.$ o.+.o.o.O.D D D D S F U A.Q.T.Y.] v 4 0 0 w e 1 < ",
"> : 0 7 , , 0 j n [ ~.^.3X+X#X;X;X*XtX[.* 9.8.@ & #.&.=.-.-.2.2.2.2.2.=.&.#.O S ' ' C 5 2 , 2 5 p u ",
"> : 0 , > : 3 k m I.!.(.1XwXwX<X;XuXuXhX+.  O.=.=.2.=.2.-.2.3.3.5.6.2.2.3.2.=.=.O   X 7 , : : 2 f f ",
"; . > > > > j x m } A.U P. .P.A.S. XtX+.O.&.2.2.3.5.6.7.7.k.k.xX5.O.#.#.=.7.5.5.O 8.$   . : : , s f ",
"> > > > : . . X & - s.g.g.g.g.f.p.q.o o -.3.6.7.k.xXxXcXcXcXcXk.$.jXSXAXO.7.k.k.% 0.y.9.  . 4 , 2 y ",
"> ; > > . = l.c.b.b.x.x.h.d.a.a.t.r.@ o 5.xXxXcXbXcXcXbXcXcXbX&.dXzXlXzXgX&.bXk.* u.u.e.0.+ . 2 : : ",
"> > > 7 o l.n.n.b.x.x.z.d.a.a.t.r.w.@ o cXbXcXcXcXbXbXbXcXcXbX$.dXkXkXkXdX$.bXk.* i.i.i.u.+ 7 : > : ",
"7 1 7 s A o = s.c.v.x.v.x.h.h.d.p.q.  O mXnXnXcXbXcXcXbXcXcXbX5.o.fXfXfXo.5.bXcX* u.i.u.$ ;.%.< : : ",
"a u i Y / Q w o b & & - - - & ` J [.|.R 2.MXBXNXmXnXbXbXbXbXbXcX&.o.o.Z =.bXmXmX*.r.w.  %.V.$.8 ; ; ",
"Y T T ( ( W s b C | T.T.(.J.J.%X;XiXtXpXR O 7.nXVXVXBXNXmXmXmXmXmXcX7.bXNXBXBXVX2.@   4 t F s u 1 ; ",
"! ( {..X,.Y p r m [ Y.^._.oXOX#X<X&XrX|.% q.* & -.N.MXVXVXVXVXVXVXCXCXCXBXMXXX` v z x 4 ; ; 1 i i y ",
"D.}.}.cXV.J e w z m  .~.(.1XOX6XOXH.s @ 0.y.y.r.+ Z o.$.=.5.k.k.xXj.4.&.#.B M P.{ m k : ; ; 1 i K g ",
"E }.}.XX7.S , 0 l n [ R.^.2X1XU   $ 9.r.r.t.u.# +.aXpXrXS.R R R I I I A.J._./.R.M c j : ; > > u i K ",
"^ D.}.{.! a 7 w b k M U.!.Q.3X3Xv $ w.u.i.u.# S.tXiXaXiXiXrX*X,X,X;X8XOX6X^.'.U._ z : ; ; > ; ; y y ",
"T E S.{.R K w w q k c [ T.Q.Q.0X7XA.% 8.9.@ Z.rXrX X X*X*X&X,X<XwX#X4XeX_.'.W.} C 4 > > ; > ; ; ; ; ",
"i i A ! ! Z 9 7 7 q x m ..T.!._.0XOX8XJ.Z.H.,X,X;X%X$X%X;X@X@XqXeX6XeX].~.`.I.] l , 0 : ; ; ; ; ; ; ",
", 8 7 A 9 9 9 7 > 7 k x C I.R.!.Q.2X4X-X+X#XwXwX<X@X=X=X=X=XOX5X5X6X(.~.W.I.] z 3 7 7 0 : ; ; ; ; ; ",
"; > > > 7 > 7 7 7 7 q z n ] I.W.^.^._.1XoXOXqXeX7X-X#X8X8X-XOX1X2X(.Q.E.| ] c < 7 7 t 2.%., ; ; ; ; ",
"; ; > > > > . w O.w , 6 j v ] I.R.~.Q.).2X1X1X6XeXqX5X4X4X3X2X_././.E.| _ n 6 ; : , H B.;., ; ; ; ; ",
"; ; > ; > > 7 O.m.D > 7 , 3 v ] | Y.E.!.!.).(.(._.9X2X_.).^.^.~.~.U.' m x j 4 ; > , t F G > > ; ; ; ",
"> > ; > 7 7 0 F %.A 7 > 7 7 e z M ] ] | R.~.^.Q.!.~.~.!.~.W.Y.} ' M c x j 4 < ; ; , 2 2 2 : > ; ; ; ",
", : > , w 7 w A A 9 7 > > > 7 7 l n n m ] } I.Y.Y.Y.Y.Y.Y.I.] m n n z 6 < < ; ; ; 1 y y 5 e 7 > ; ; ",
"> ; > > 0 > 9 A G 9 7 7 > > > 7 7 6 j k c n m M ] ] ] ] ] C n k j 6 6 < < ; ; ; ; > e p p q : > ; ; ",
". ; ; ; > > i K i 8 > 7 , > > 0 : , 2 4 j k k k c z 6 6 4 3 : : : ; ; ; ; ; ; ; , 2 y y y > ; ; ; ; ",
"; ; ; > ; 2 K K 8 ; > , e 7 > > > > > > , , , j 6 3 : > > : ; ; ; ; ; ; ; ; ; . ; 1 y p 1 ; ; ; ; > ",
"; ; : : 1 u T K 1 ; < e A e G H e > t &.D , 7 , : > : 0 S S . ; ; ; ; ; ; ; ; ; ; y g K y : ; ; ; ; ",
"; ; > w J G T g 1 : < 2 a L 3.m.F 2 F m.>.7 7 7 : > . w j.;.7 > ; : ; ; ; ; ; ; 1 J >.~ K y 1 ; ; ; ",
"; ; ; J B.1.T i 1 ; ; 1 d T :.3.F u a J S 7 7 > ; ; ; > J J : ; ; : ; ; ; ; ; ; 8 5.ZXk.E K i y 1 ; ",
"; ; ; t $.~ A s > ; ; 2 p L ^ ) / Y A a 0 > 7 > ; ; > : ; ; ; ; ; ; ; ; ; ; ; ; : >.M.>.! E E E u ; ",
"; ; ; ; > < u 2 ; ; ; > 2 p P ^ ^ ^ Q s 0 : > > ; . ; ; ; ; ; ; ; ; ; ; ; ; ; ; ; 8 S A u i K K y 1 ",
"; ; ; ; ; ; ; ; ; ; ; ; < 1 d ^ F.( ^ p , : > ; > 7 > ; > > ; ; . ; ; ; 3 , ; ; ; ; : 2 < < y 1 1 ; "
};
