/* XPM */
static char *_3539b97296f408ddad7300494fb8709pq6H77D4Dgs0KUKr[] = {
/* columns rows colors chars-per-pixel */
"50 50 245 2 ",
"   c #380917",
".  c #2D1017",
"X  c #372F1F",
"o  c #03063E",
"O  c #160F32",
"+  c #331032",
"@  c #342F2E",
"#  c #4E0D18",
"$  c #6D0E13",
"%  c #531624",
"&  c #472826",
"*  c #53373B",
"=  c #642928",
"-  c #664D2B",
";  c #6E542F",
":  c #030543",
">  c #090644",
",  c #060944",
"<  c #0B0B44",
"1  c #060748",
"2  c #060A4B",
"3  c #0B0D4B",
"4  c #130D45",
"5  c #190847",
"6  c #130E4A",
"7  c #1C0B49",
"8  c #0C1144",
"9  c #0E114D",
"0  c #0F184E",
"q  c #141345",
"w  c #1B1345",
"e  c #1B1B46",
"r  c #13134C",
"t  c #1B144B",
"y  c #15194A",
"u  c #1A1A4A",
"i  c #0A0E52",
"p  c #170E55",
"a  c #0C1353",
"s  c #0E195A",
"d  c #131453",
"f  c #141A54",
"g  c #1B1C54",
"h  c #15165A",
"j  c #131B5C",
"k  c #1B1A5B",
"l  c #2D0F41",
"z  c #23064A",
"x  c #2C064C",
"c  c #230B4A",
"v  c #2B0B4C",
"b  c #30074D",
"n  c #320A4E",
"m  c #2F1349",
"M  c #251848",
"N  c #350D51",
"B  c #380F54",
"V  c #3D0F5C",
"C  c #281755",
"Z  c #3A1255",
"A  c #3B1A51",
"S  c #3E125B",
"D  c #1B2258",
"F  c #133750",
"G  c #28254B",
"H  c #34264D",
"J  c #2A374F",
"K  c #393848",
"L  c #242757",
"P  c #2C2C52",
"I  c #382754",
"U  c #363655",
"Y  c #131E63",
"T  c #1D1D64",
"R  c #191D7A",
"E  c #31106A",
"W  c #1A2463",
"Q  c #182367",
"!  c #11346F",
"~  c #242867",
"^  c #22326B",
"/  c #363567",
"(  c #272B76",
")  c #2B2B74",
"_  c #332773",
"`  c #25357A",
"'  c #343676",
"]  c #441350",
"[  c #41145D",
"{  c #423A54",
"}  c #503850",
"|  c #450D6B",
" . c #421262",
".. c #46146A",
"X. c #490E75",
"o. c #4E0D7B",
"O. c #500D7E",
"+. c #4E1175",
"@. c #51117C",
"#. c #45326C",
"$. c #15454F",
"%. c #3E4547",
"&. c #3C4655",
"*. c #394274",
"=. c #494D4C",
"-. c #4E4E53",
";. c #4A485A",
":. c #5A5959",
">. c #665155",
",. c #5E605E",
"<. c #6D685E",
"1. c #4C4869",
"2. c #565767",
"3. c #504D72",
"4. c #615B68",
"5. c #546267",
"6. c #646563",
"7. c #686567",
"8. c #6E6B6B",
"9. c #6C6C6B",
"0. c #75726A",
"q. c #767775",
"w. c #860A0A",
"e. c #98110E",
"r. c #AE120F",
"t. c #912A18",
"y. c #C70A05",
"u. c #DB0703",
"i. c #C8110B",
"p. c #D41906",
"a. c #C61512",
"s. c #E90905",
"d. c #FB0501",
"f. c #D2300C",
"g. c #EF320A",
"h. c #A26E27",
"j. c #CF4F15",
"k. c #EE5014",
"l. c #EE6D1E",
"z. c #CA7D26",
"x. c #827B70",
"c. c #7D827E",
"v. c #B09022",
"b. c #DB9427",
"n. c #F18327",
"m. c #FD982E",
"M. c #F4AD2C",
"N. c #F8CA2D",
"B. c #968969",
"V. c #91896F",
"C. c #A4986D",
"Z. c #A49971",
"A. c #C2B47C",
"S. c #151C84",
"D. c #251D9A",
"F. c #0B378F",
"G. c #2A3B83",
"H. c #383685",
"J. c #37368D",
"K. c #1C1AA4",
"L. c #3313A7",
"P. c #2617B4",
"I. c #102EA9",
"U. c #400787",
"Y. c #540D84",
"T. c #550C8A",
"R. c #580C8C",
"E. c #561084",
"W. c #5C0B95",
"Q. c #560999",
"!. c #5D099A",
"~. c #610A9B",
"^. c #4B09AA",
"/. c #5609A5",
"(. c #5B09A5",
"). c #5309AB",
"_. c #5B09AB",
"`. c #4D09B5",
"'. c #5709B8",
"]. c #4116BD",
"[. c #6209A4",
"{. c #6308A9",
"}. c #6608BC",
"|. c #0D5F95",
" X c #354A93",
".X c #0046A7",
"XX c #064ABA",
"oX c #0555BA",
"OX c #484682",
"+X c #6A6B8D",
"@X c #3E0DC7",
"#X c #3817CA",
"$X c #271EDD",
"%X c #3919D4",
"&X c #1E28C8",
"*X c #1A39CA",
"=X c #1938D7",
"-X c #272CC9",
";X c #3826CB",
":X c #2527D9",
">X c #3427D1",
",X c #2D1AE3",
"<X c #3418E5",
"1X c #4A0DCC",
"2X c #5809C6",
"3X c #540BCB",
"4X c #4513CE",
"5X c #480BD3",
"6X c #5608D7",
"7X c #4614D4",
"8X c #421BD1",
"9X c #6C06CC",
"0X c #6706DB",
"qX c #4121CA",
"wX c #5D09E1",
"eX c #4E13E7",
"rX c #6409E4",
"tX c #0353C5",
"yX c #0C48D2",
"uX c #0455D8",
"iX c #0475D0",
"pX c #1249E7",
"aX c #0557E7",
"sX c #0665F0",
"dX c #0676F7",
"fX c #0E8C9F",
"gX c #1A9FB2",
"hX c #638688",
"jX c #058EEE",
"kX c #23D1EA",
"lX c #39E8FF",
"zX c #58EEFF",
"xX c #858884",
"cX c #8C8F8B",
"vX c #928E88",
"bX c #8E918D",
"nX c #989997",
"mX c #9FA19F",
"MX c #A0A19F",
"NX c #A4A5A3",
"BX c #ACADAC",
"VX c #B0B0AF",
"CX c #B1B1B0",
"ZX c #C4B788",
"AX c #92EAF7",
/* pixels */
"4 w 4 4 < < d C / #.2.A > > > < > < M q < > > > o w M M q w w 4 4 4 > > 4 > < 3 d D g d d > > > : : ",
"w e q < 4 r T ) 3.vXZX7.q : < < < < q o > 4 w w M -.<.H w 4 4 4 4 4 4 4 4 4 4 3 ~ 8.4.~ h 6 > > > > ",
"4 4 4 4 t T ) H.OXvXZX7.q > < < < > 4 < < 4 e w G V.Z.U e O w 5 4 4 4 4 > > 4 d *.vXx._ T p 3 > > > ",
"< < 4 r T _ H.H.H.#.1.G < > > < < 4 > < < 4 6 r L 1.4.~ C M M w 5 w 4 4 > > 6 W ` *./ ~ T T d i : : ",
"< < 6 k ) J.J.H._ k M 4 > r r 6 w w 4 4 4 4 r y # % ' ~ t M M w 7 w 4 4 > q k Q ^ D k T T T k t 3 : ",
"4 > 6 T H.J.J.' T 6 r < > u L r O G H M 4 r 9 # r.y.+ C t c M w O w w 4 4 r ~ ^ W 1.4.I T T T k 6 : ",
"< 1 h ) H.+X+X#.h < > 4 9 j W r q { B.-.M < . r.s.d.y.  x l c c 4 4 w M w L ~ ~ D 0.A.:.h h T T a 1 ",
": 3 h ) H.+XZX3.d : , : 9 D ~ p 7 H } ] N + w.a.s.d.d.e.+ n n v z 4 q M g ~ ~ f r { 7.U 6 d Y Q j 2 ",
"> 1 p Q ) 1.3.P 9 , : > y 2.q.I x x N B N   r.r.d.d.d.i.  B [ B n n M w d h C r < 4 5 < 3 s Q ^ k 3 ",
": > 6 h k P C d 3 : > 3 L 2.>.N N Z V | m @ X X = $ = >.:.B R.| S [ A C t t w < < < < < 3 j W P u 2 ",
"> < 3 3 3 d j d 3 , > < c N x B  .Y.W.W.+ 6.6.c.c.xXxXNXNX} Q.[.R.R.+.[ m w 4 > 4 4 < 3 a j f f 8 : ",
"> > > > 3 s D j 3 < > 4 z n S X.Q./._.U.K 6.9.c.bXbXbXnXBX8.E '.[.~.~.+.[ N c w 4 < < 3 a 9 3 , > : ",
"> : > : 9 Y Q f y q < 5 N S +.W.^.^.2XE =.6.c.c.,.5.0.nXBXbXE 1X'._.{.[.+.S n v 4 > 4 4 < < , > < < ",
"> o , 9 s Q j r q > 6 C S @.W.(.^.6X5XC :.<.,.%.hX*.$.8.BXNXH P.7X2X'.{.~.X.S n 5 4 w 4 4 4 > < w 8 ",
"> , < d W W D y > < c S @.!._.'.rXwX6XA ,.<.* zXlXkXfX$.nXVX=.L.8X#X0X}.[.W.X.Z x m <.>.M o > o , > ",
": < 9 j W L <.:.q 7 Z +.!.(.).0X6X7XL.K <.,.=.AXlXkXgX$.cXCX,.S.>X8X1X0X`.^.W. .n m B.x.G < > , o , ",
"8 < 0 j D P B.<.c v  .E.(.).2X4X8X>XP.{ 6.7.=.zXzXkXfX$.bXVX9.R :X>X%XwX6X`.(.O.B b H H 4 o > , : : ",
"4 < 9 0 8 y e M c N  .W.).'.4XqX;X:XK.=.6.8.6.5.gX|.$.:.MXVX9.! *X,X7XrX5X2X_.!.V N 5 6 < > > > : : ",
", , , 2 < < < 5 x B +.(.).3X;X;X&X=X! %.,.9.xX0.:.=.6.bXmXBXq.! tX$X<XwX5X5X'.(.X.B x 5 4 4 M y : : ",
", > < , < < < z N S W.(.'.#X;X-X$X=XF.%.<.0.hXbXZ.cXbXbXmXBX9.F.uX=X<X%X5X#X2X_.Y.S N 4 4 q e q 2 2 ",
"> < q 8 , 8 < v N X.!.).2X#X;X:X:XpXXX%.,.7.c.bXcXbXbXbXmXCX6..XuXyX:X$X-X#X1X_.[.o.A 5 < < 3 6 d d ",
", , q < , < 4 x N o.).`.3XeXeX<X:XpXoXJ 6.7.c.cXcXbXbXbXNXBX-.oXaXaX=X,X-X@X5X'.[.Y.S 7 < < > 3 p k ",
", , , o < , 7 x Z Y.^.^.0XrXeX<XyXuXuXJ ,.6.q.cXcXbXbXbXNXBX%.iXdXsX=X:X-X8X@X2X{.R.[ 5 < > > < t k ",
", , , < < < 7 v S E.Q.`.rX8X<X,XyXaXdXF :.6.q.bXcXcXbXbXBXmX$.jXdXaXXX*X-X%X1X9X[.R.[ c < 4 4 < 2 3 ",
", o , , 8 q t x [ R.[.}.rX;X>X:XoXaXsXF -.6.0.xXcXcXbXnXBXx.F jXdXaXtX*X$X#X6X9X[.R.S v 4 > 4 < 3 3 ",
"8 , < 3 0 r u m [ R.(.'.6X;X-X:XoXsXF.$ * 6.9.c.bXcXbXmXBX:.. oXdXaXtX:X<X7XrX2X(.Y.S n 7 u q > > : ",
"8 , 9 f L k L {  .E./.`.7XqX-X:XyXF.$ u.& ,.6.c.cXbXbXNXMX& a.# .XuXyX,XeXrX6X2X/.Y.] n { x.U < > : ",
"0 a s W ) ~ L I [ E.(.).3X;X-X:XK.# s.i.$ =.6.q.xXbXnXBX8.= p.s.# I.=X,XeXwX1X'._.o.Z x ;.Z.2.9 : : ",
"W W ^ ` ( Q g c S @.~.^.2X#X;X&X% s.s.a.e.X ,.9.xXbXNXnX& r.r.s.s.+ P.$X%X@X1X'.[.| N z y P g a 2 2 ",
"` ` G.OX3.~ f u n ..R.).'.#X%XK.$ d.u.r.% ! %.7.q.bXNX5.F % r.a.d.w.K.:X#X@X2X_.W.V N 5 : : 2 s s 3 ",
"`  X XbXZ.U y w n Z +.(.).4X@X3X$ d.a.w.F.dX! X @ @ %.$.jXF.$ a.d.$ I.>X#X@X'.(.o.B x > : : , s Y j ",
"`  X X+X9.L 8 q z N ..!./.2X5XwXV y.a.+ tXsXoX. #   O tXaXtXG a.y.l -X8X#X3X_.W.V N z > : , < i s Y ",
"( G. X X^ d 8 y M x [ Y./.^.6X6XL.$ e.R yXpXI.t.r.r.t.XXpXyXS.w.$ D.#X#X6X_.{.R.S x > : : , : : i i ",
"Y ~ G.G.! j e y w x n ..Q.^.`.0X7Xv   K.$X>X( j.p.p.f.) =X:XP.. E #X7X0X'._.!.o.S 5 , , : > : : : : ",
"s s Q ^ ^ F 0 8 o c x N o.W./.'.0XL.7 ;X-X$X_ j.p.p.k.U $X$XP.E 6XwXrX}.{.[.Y. .c < q < : : : : : : ",
"3 3 0 0 f 0 8 8 8 q v n S @.~.(.`.2X#X;X;X%X_ l.g.g.l.} &X:X#X@X5X6X`.{.!.Y.[ v < q 8 q < : : : : : ",
", > , 8 8 < , 8 8 8 w v N S E.!./.^.2X1X#X#X#.l.k.g.l.>.P.8X@X1X2X`.^.!.O. .v 3 < < u 6.;.< > o : : ",
": : , , , , 8 e %.e < 5 c N  .E.~././.`.2X3X..z.l.k.m.- ].3X2X'._.(.!.O.[ n 7 : < > P C.7.8 , : : : ",
": : , : , , 8 K B.J 2 8 < 4 C  .O.R.!./.).`.X.z.m.n.m.* ^.).).(.(.T.| B b x 5 : o < u U G , > : : : ",
": , o , 8 , y J &.G 8 < 8 8 4 v V  . .O.!.(.E h.m.m.M.* (.[.R.o.| V b b z 5 1 : , < 2 i 2 , , : : : ",
"o > , < e 8 y D D d < , , 8 , 8 c x N B  .o.| h.m.m.b.} R.Y. .B N n v 7 1 : : : : 2 i i 6 y < > : : ",
"< : , , 8 < 0 D D 0 8 8 , , , 8 9 5 v x n N x - M.M.v.+  .V N x z 7 t : 1 : : : : 3 r d d w < : : : ",
", : : : , , s Y s 8 < 8 , < , q < 8 > 5 z x x & M.N.; O 5 5 > > > : : : : : : : > 3 3 a 3 2 : : : : ",
": : : , : 3 Y Y a < , 2 0 < , 8 , , , < < < 4 O v.N.X > : : : : : : : : : : : : : 2 i d 2 : : : : , ",
": : , o < a Y Y i : > 3 u r L U r , u :.J 8 o o ; v.O o @ G : : : : > : : : : : : i j j i 1 : : : : ",
": : > e U L Q Y 2 : > d j W 7.B.P > P B.,.y 8 8 O X o y x.0.9 : : > : : : : : : 2 U 2.' Y i 2 : : : ",
": : , U C.6.W j 2 : : 3 h ~ 1.4./ i f U G > 8 , o o o o K U > : : > : : : : : : 8 9.ZXq.^ Y s i 2 : ",
": : : u 1.U D f , : : 1 i T ( ' ~ W D f q < 8 , , o 8 8 : : : : : : : : : : : : > 2.vX2.^ ! R Q a 1 ",
": : : : : 2 a 3 : : : : 3 h T ( ( ( ~ L q > , , > , , > : o : : : : : : o : : : : 8 G D d s Y Y i 1 ",
": : : o : : : : : : : : : 2 h ( ( H.( h > , , : o 8 , : : , : : : : : : 4 < : : : : 3 > 1 2 i 2 2 : "
};
