/* XPM */
static char *_81af4cd5be84ba3b62675ac3c22cf100ajESaHt4Jy0hcnY[] = {
/* columns rows colors chars-per-pixel */
"50 50 220 2 ",
"   c #192A17",
".  c #1E241B",
"X  c #1A3813",
"o  c #20281C",
"O  c #233A1B",
"+  c #0E1426",
"@  c #0D122A",
"#  c #161828",
"$  c #060838",
"%  c #0C0C3C",
"&  c #130F35",
"*  c #0D1236",
"=  c #131333",
"-  c #171837",
";  c #1A2726",
":  c #182929",
">  c #242625",
",  c #262826",
"<  c #2C2D2C",
"1  c #2E302D",
"2  c #2C3A28",
"3  c #333D2E",
"4  c #2C2B37",
"5  c #383939",
"6  c #1E460E",
"7  c #1A4417",
"8  c #23530C",
"9  c #275D0B",
"0  c #274718",
"q  c #2B5714",
"w  c #2C690B",
"e  c #2F780B",
"r  c #307E07",
"t  c #337C0C",
"y  c #2B6611",
"u  c #336717",
"i  c #3A7B18",
"p  c #34482A",
"a  c #355325",
"s  c #36542B",
"d  c #3C4736",
"f  c #3E453A",
"g  c #3C6F21",
"h  c #3C7220",
"j  c #42473D",
"k  c #494F38",
"l  c #507A38",
"z  c #636438",
"x  c #030543",
"c  c #090744",
"v  c #060944",
"b  c #0B0B44",
"n  c #060748",
"m  c #060A4A",
"M  c #0B0D4B",
"N  c #130D44",
"B  c #180F45",
"V  c #120F4A",
"C  c #0C1245",
"Z  c #0D124B",
"A  c #0F194D",
"S  c #141345",
"D  c #1B1245",
"F  c #151945",
"G  c #1C1C45",
"H  c #14134C",
"J  c #1B154B",
"K  c #14194C",
"L  c #1B1B4A",
"P  c #070F52",
"I  c #0B0E52",
"U  c #0C1353",
"Y  c #0E1958",
"T  c #131453",
"R  c #1C1651",
"E  c #141A53",
"W  c #1B1B54",
"Q  c #14165B",
"!  c #181559",
"~  c #131B5C",
"^  c #1B1B5B",
"/  c #211646",
"(  c #231B46",
")  c #291D46",
"_  c #231A4A",
"`  c #201B56",
"'  c #221C54",
"]  c #1A2148",
"[  c #1E2253",
"{  c #15235B",
"}  c #19215B",
"|  c #24234B",
" . c #2B234B",
".. c #29284A",
"X. c #312549",
"o. c #332B4C",
"O. c #2E324D",
"+. c #3B3849",
"@. c #262757",
"#. c #2C2B51",
"$. c #24235C",
"%. c #322752",
"&. c #2A3159",
"*. c #383753",
"=. c #32345C",
"-. c #131E63",
";. c #1D1D64",
":. c #231E62",
">. c #162364",
",. c #1A2463",
"<. c #182766",
"1. c #1E256B",
"2. c #192A72",
"3. c #1E3675",
"4. c #232463",
"5. c #2A2D66",
"6. c #212168",
"7. c #242C6B",
"8. c #23326C",
"9. c #363567",
"0. c #262B72",
"q. c #2B2A74",
"w. c #282A79",
"e. c #312C73",
"r. c #273677",
"t. c #363977",
"y. c #41364E",
"u. c #443B53",
"i. c #473F6F",
"p. c #3F435A",
"a. c #394274",
"s. c #434642",
"d. c #454A43",
"f. c #484B47",
"g. c #4B4D4B",
"h. c #4E514E",
"j. c #50534F",
"k. c #4A4758",
"l. c #524B50",
"z. c #574C56",
"x. c #545554",
"c. c #585A57",
"v. c #55545A",
"b. c #575858",
"n. c #5A5C59",
"m. c #665B57",
"M. c #68634D",
"N. c #6C645A",
"B. c #786B5F",
"V. c #7E745E",
"C. c #4C4668",
"Z. c #565769",
"A. c #504D70",
"S. c #615D69",
"D. c #5D606A",
"F. c #686468",
"G. c #716C62",
"H. c #767369",
"J. c #6D6C76",
"K. c #80765D",
"L. c #817866",
"P. c #897D6F",
"I. c #34850A",
"U. c #368B09",
"Y. c #37940A",
"T. c #39930A",
"R. c #3A9B0A",
"E. c #3A8612",
"W. c #3DA00A",
"Q. c #40A70A",
"!. c #41AA0A",
"~. c #44B609",
"^. c #46BC08",
"/. c #51A824",
"(. c #49C507",
"). c #49C707",
"_. c #4ED407",
"`. c #50DA08",
"'. c #53E408",
"]. c #59F407",
"[. c #59F907",
"{. c #59F509",
"}. c #5BFA09",
"|. c #60F911",
" X c #70FA28",
".X c #79F737",
"XX c #749962",
"oX c #7ADA47",
"OX c #968C5E",
"+X c #97886A",
"@X c #9B8F6B",
"#X c #8F8B70",
"$X c #A2976C",
"%X c #A69877",
"&X c #AFA47A",
"*X c #C2B47C",
"=X c #82FB43",
"-X c #93D470",
";X c #9AFC68",
":X c #A9FD7E",
">X c #2A3B83",
",X c #363384",
"<X c #393986",
"1X c #3F3E91",
"2X c #374688",
"3X c #344893",
"4X c #3D5196",
"5X c #464782",
"6X c #605E92",
"7X c #6E728B",
"8X c #857F85",
"9X c #918B85",
"0X c #C4B788",
"qX c #9FC58B",
"wX c #A3CF8C",
"eX c #B9FD95",
"rX c #C9FDAE",
"tX c #D0FFB7",
"yX c #D8FDC5",
"uX c #E2FFD2",
/* pixels */
"N D N N b M T ` i.i.i.X.N c c b c c / D b c c b b D X./ B B B N b N x x B x c c T W ` T M N c c n n ",
"D G N N N H :.e.A.8X0XF.N n b b b N N b b b D D D l.N.X.B N B N N N B N N N N M 5.J.S.:.! I c c c x ",
"b N N b T :.q.,X5X9X0XF.N c b c b c b b b N D D  .#X%X=.B B B B N N N N c N N ! a.9XP.q.:.Q N c c x ",
"b N N H :.e.,X,X,XC.C. .N c b b N b c b N N N H $.A.D.5./ ) ) B B B N N c c M ;.r.a.9.6.:.;.I M c x ",
"c N M ! q.,X1X,Xq.` W N b H L N N D N c N N H $.e.2X<X5.R ( ) B B / N N b V [ 1.r.} W ^ :.;.;.T c x ",
"N c V ;.,X1X1X,X:.V B b c W [ H - X.o./ N N ^ r.2X2X2X:.J / / B N B B B B K <.0.1.k.S.=.;.;.;.^ V c ",
"c n Q w.<X6X7Xe.! n b b M Q ~ T N u.@Xz./ R 7.2X4X3Xt.%.y.y./ D N N D D J @.7.6.} H.*Xv.! -.;.;.I m ",
"c n Q w.i.7X0XC.H c n c Z } 7.E V o.K.u.D ` t.4X4Xt.5.i.%X+Xo.B B b D ) W $.4.^ J k.F.%.M T -.;.-.M ",
"c c Q ;.q.A.A.&.V c c c T Z.#X=./ D / D D $.t.A.t.5.' u.%X@Xy.B B B B J ! ! W B b N B b M U <.8.^ n ",
"n c I Q ` @.W T M x b b [ H.&Xk.D S D D D W 4.5.$.' J _ u.y.) _ D R ` ' J B B N c b c b I ~ <.#.H b ",
"c M c c M T ~ T M c c b T =.*.| S N D D D B H J L / / D B B / _ R ` %.%./ B N c B N b M T Y Q L C x ",
"c N c c M E ^ Q M c b b H W W _ D S N D D B D D D / D B B / B R R ` _ ) ) B N B N c b V M I n n b x ",
"x c x n M -.>.~ H S b V R ^ $. .L G / D D (  .( D D D / ) _ ` _ _ / / / / B N N b c N N b c c b b b ",
"c x b M ~ >.~ K N b V R $.$.W L D (  .G D 4 j 2 o : ; # & B ` ' X.) B B / B N N c N J H N b c b F S ",
"x c b T >.>.W J b b K W $.^ W H S * = . 6 U.).`.'.'.oXqXXXk # o.P.z./ / X.( B N b ) B.x.( b c % x c ",
"c b Z ~ >.&.G.b.S b K ^ ^ E H S * + 8 U.`.}.}.}.}.}.=XeXtXuXwXl z l./ / ) / B B B X.+XL.) b x c $ n ",
"C b U ~ W #.+XN.J M K W W L & + 6 e R.'.}.}.}.}.}.}.}.{. X:XtXyX-Xo & D D D D D D D %. .N c c n x x ",
"N b Z A A C | L b Z J K L G # 8 I.U._.[.}.}.{.}.{.}.}.}..XyXrXeXuX-X2 % N D D D B N b N b c c c x x ",
"v b b M b b b % b C F H S # 9 I.I.~.{.}.}.}.}.}.}.}.}.}.}..XeXrX;XuX-X  N D J J N N N N N b ( D n x ",
"c v v b c c C C b b b b * 8 I.I.Y.'.}.}.{.}.}.}.}.}.{.}.}.{.}.=X X;XtX/.@ D _ $._ N N N N S L T M n ",
"b b S b c b b b v $ % @   r I.I.W.{.}.}.}.}.}.{.}.}.}.}.}.}.}.}.}.|.:X.X8 - G .. .S N N b b c V I T ",
"x v S b c % % $ + # > o 8 I.I.I.).}.}.{.{.}.}.}.}.}.{.}.}.}.}.}.}.}.|.}.Q.f g.5 4 = % b b c c V ! ! ",
"v $ v b c $ # > < < < o u t r I._.}.}.}.}.}.}.}.}.{.}.}.}.{.}.}.}.}.}.}.).3 n.n.x.j.5 # $ b b c R ^ ",
"v v v $ @ > < 1 < < , . 8 u t I._.{.}.}.}.}.{.}.}.}.}.}.}.}.}.}.}.}.}.'.w 5 n.n.n.n.b.x.5 = % N n M ",
"v v $ # < >   o , < < , o   6 w ~.].}.}.}.}.}.}.}.}.}.}.}.}.}.}.'.).I.a f.n.n.n.c.d a p x.g.- c b n ",
"v v # 1 < . u u . < < < 1 1 < , 0 u E.T.R.~.(.).(.(.(.~.!.R.E.u a d f.b.n.n.n.n.f U.'.U.f N.f.@ c c ",
"v v @ 1 1 , o O > < < , o o < 5 f.l.j.g.d.j j f f f f j d.f.g.x.b.n.g.p p g.n.n.g.u t p x.c.f % n x ",
"{ Z A # < 1 < , < < < . 0 u   1 s.v.n.g.j g.n.n.n.n.n.g.s.g.n.n.b.x.y _.(.0 b.n.c.j.h.c.x.5 ..M n x ",
",.<.2.8.- > 1 < < < < , X 0 o < s.j.f.w ^.t s.n.n.n.d.e ~.t d.n.n.j.a I.u f n.n.n.n.x.5 = ] W A m n ",
"r.>Xr.a.A.] # , 1 1 < 1 < > < 5 +.h.j.q R.t d.n.n.n.s.I._.I.d.n.n.n.x.h.x.n.n.x.d.4 @ $ x n m Y Y Z ",
"r.3X4X9X%X=.F @ # # , < < 1 1 1 f h.c.x.d.g.c.n.n.n.c.d.d d.n.n.n.n.b.x.g.5 4 - = % x x x x n Y -.~ ",
"r.3X4X7XJ.@.C S C * - ] - > o < 5 s.h.x.n.x.c.v.v.v.x.x.x.x.g.d.k s a k M.G $ v M b x x x v b P Y -.",
"0.>X3X2X<.A C F ] A { 3.3.] X 8 8 q i E.h h h h g h i i T.R.!.).`.).0 k.v.Z v v v x $ x x c x m P P ",
"-.2.>X>X3.{ ] - F C { <.<.{ * 6 e I.).[.{.{.{.{.].].{.{.[.}.|.}.).7 $ M b x x x x x x x x x x x x x ",
"U Q >.8.8.{ A C C C A A A A C * X w Y.`.}.}.}.}.}.}.}.}.}.}.].Y.; x x x x v v x v % S b x x x x x x ",
"M Z A Y { A C % v C A C C C * A * + X I.`.}.}.}.}.}.}.]._.R.X $ x x x x x x v x v C C S b x x x x x ",
"n v v v C v v C C * C C C C C ] F C * + X w U.R.W.Y.t g 3 % v c x x x x v x v v b b G F.k.b x x x x ",
"x x v v v v C ] p.] C C C C A C C C F *.O.C C C * C J XX@X@.b v v x x x x m v v b c O.$XG.b v x x x ",
"x x v x v C C *.OXO.C v v C C C C F &.$X#X&.A >.>.<.&.D.D.[ c x $ S S c m m m x x b K =.| c x x x x ",
"x v $ n C v F O.p.] C v C C C C A C #.#XXXO.C Y <.3.8.8.&.A m x Z m.M.Z m m v x v b M I m b v x x x ",
"b b v b G S K [ { ] v C v v C v Z Z S ..| F C v A { <.1.<.Y n v | K.V.K m n x $ x n V I I H S x x x ",
"% x x v b M Z } } A b S v v C C b C C b v v C v v v Z Z K M v x b L L n n x x x n n T I H J b x x x ",
"x x x x b c Y -.Y m C C v v v C b C v n v v C v v v x v b b x x x x x x x x x x b M Z I M c x x x x ",
"x x x v x M -.-.U v v m H C v b v x v v C v v v v v b v v x x x x x x x x x x x x n I T P x x x x c ",
"x x x b n P -.-.m n n M [ T | O.H b F v.*.b b C v v v F ..| c x x x x x x x x x m U ~ ^ P n x x x x ",
"x x x G *.&.>.-.m n n Z E ;.F.@X#.M #.@Xn.C C C v v v S V.V.C x x b x x x x x x b =.Z.9.~ I m n x x ",
"x x x *.$XD.<.~ b x x M Q :.C.J.=.I K =.| b C v v x x b *.*.c x x c x x x x x x Z J.0X7X3.-.Y P m n ",
"x x x L v.=.} E c x n n T ;.0.w.0.,.} E S b v c $ x b x x x x x $ x x x x x x x b v.#XZ.2.2.2.>.P n ",
"x x x x x n U Z x x x n n ! ;.w.w.q.5.W H v v v v v v $ x x x x x x x x x x x x x M #.[ U Y -.-.P n ",
"x x x x x x x x x x x x n M -.6.w.,X7.Q b c v x x C b x x n x x x x x x N b x x x x b c n m P P n x "
};
