/* XPM */
static char *_4d22715b11045c6fefe443f3ded3ec6DiNn9iy7eCoJJPt8[] = {
/* columns rows colors chars-per-pixel */
"50 50 211 2 ",
"   c #030543",
".  c #080744",
"X  c #060944",
"o  c #0B0B44",
"O  c #050748",
"+  c #050A4A",
"@  c #0B0D4B",
"#  c #130D45",
"$  c #190F45",
"%  c #120E4B",
"&  c #0C1244",
"*  c #0D124B",
"=  c #0F194D",
"-  c #141345",
";  c #1B1445",
":  c #161A45",
">  c #1C1A46",
",  c #14134B",
"<  c #1B154A",
"1  c #15194B",
"2  c #1B1B4B",
"3  c #070F52",
"4  c #0B0E52",
"5  c #0D1353",
"6  c #0E1952",
"7  c #0E1758",
"8  c #0D195F",
"9  c #131553",
"0  c #1C1651",
"q  c #131A53",
"w  c #1C1B53",
"e  c #14165B",
"r  c #181559",
"t  c #131B5B",
"y  c #1B1C5B",
"u  c #211746",
"i  c #231B46",
"p  c #2A1D46",
"a  c #251B49",
"s  c #221C4B",
"d  c #221C53",
"f  c #201B56",
"g  c #1E214B",
"h  c #1E2253",
"j  c #15235A",
"k  c #192558",
"l  c #1B215D",
"z  c #272045",
"x  c #2B2346",
"c  c #24244B",
"v  c #2B244B",
"b  c #25294C",
"n  c #2B2B4D",
"m  c #312549",
"M  c #332B4C",
"N  c #2D314D",
"B  c #34334E",
"V  c #3C324E",
"C  c #3A3C4D",
"Z  c #232354",
"A  c #292355",
"S  c #272856",
"D  c #2C2C52",
"F  c #24245C",
"G  c #2A255B",
"H  c #24295B",
"J  c #2B2B5B",
"K  c #322751",
"L  c #312B51",
"P  c #283157",
"I  c #2D315A",
"U  c #333352",
"Y  c #3C3355",
"T  c #343950",
"R  c #3B3B53",
"E  c #32345B",
"W  c #31395B",
"Q  c #3E3C5B",
"!  c #131E63",
"~  c #1D1D63",
"^  c #1C1D68",
"/  c #221E62",
"(  c #162364",
")  c #1A2463",
"_  c #162963",
"`  c #1C2B64",
"'  c #132268",
"]  c #1E256B",
"[  c #1A2A69",
"{  c #1E326D",
"}  c #162973",
"|  c #1D3271",
" . c #232463",
".. c #282663",
"X. c #242C65",
"o. c #2D2D65",
"O. c #222168",
"+. c #232C6B",
"@. c #2C2D6B",
"#. c #342D68",
"$. c #23336C",
"%. c #27396D",
"&. c #323462",
"*. c #35336B",
"=. c #383669",
"-. c #232573",
";. c #262B72",
":. c #2B2B74",
">. c #2B2D7E",
",. c #312C73",
"<. c #213474",
"1. c #2E3776",
"2. c #26347C",
"3. c #243D7D",
"4. c #283B7E",
"5. c #353272",
"6. c #383877",
"7. c #343B78",
"8. c #393E7D",
"9. c #41364E",
"0. c #443D52",
"q. c #433B55",
"w. c #473F6F",
"e. c #3F435A",
"r. c #394278",
"t. c #4B4853",
"y. c #44425B",
"u. c #4C445B",
"i. c #4C4B5B",
"p. c #544C55",
"a. c #5A4D55",
"s. c #565554",
"d. c #52505B",
"f. c #5A545B",
"g. c #5F5B5E",
"h. c #665B57",
"j. c #635C5D",
"k. c #6B6459",
"l. c #73685F",
"z. c #7D6E5F",
"x. c #7B735E",
"c. c #4C4464",
"v. c #4D4C66",
"b. c #4C486D",
"n. c #544F68",
"m. c #495263",
"M. c #535261",
"N. c #54576F",
"B. c #595C6D",
"V. c #474776",
"C. c #534B79",
"Z. c #575674",
"A. c #615D69",
"S. c #5F6166",
"D. c #5D606A",
"F. c #5B6674",
"G. c #696568",
"H. c #716C62",
"J. c #786D67",
"K. c #7B7263",
"L. c #76736C",
"P. c #666272",
"I. c #706F72",
"U. c #72757C",
"Y. c #837A5D",
"T. c #837865",
"R. c #8D7F65",
"E. c #827C7A",
"W. c #8F855D",
"Q. c #968C5E",
"!. c #8A8468",
"~. c #988667",
"^. c #92856B",
"/. c #948969",
"(. c #9B8F6C",
"). c #9B946B",
"_. c #858473",
"`. c #95927A",
"'. c #A3986C",
"]. c #A29B74",
"[. c #A89876",
"{. c #AA9F74",
"}. c #B4A469",
"|. c #ADA277",
" X c #B1A47C",
".X c #C3B479",
"XX c #263C81",
"oX c #2D3A83",
"OX c #353384",
"+X c #393581",
"@X c #393C84",
"#X c #3A398B",
"$X c #3F3E91",
"%X c #294284",
"&X c #344283",
"*X c #334788",
"=X c #3B4A8D",
"-X c #314794",
";X c #3B4D93",
":X c #3E5196",
">X c #444A82",
",X c #464888",
"<X c #605E91",
"1X c #636D89",
"2X c #726D8E",
"3X c #6B7688",
"4X c #867F85",
"5X c #878786",
"6X c #918586",
"7X c #9C9881",
"8X c #C4B788",
/* pixels */
"# ; # # o o 9 / #.w.a.K .     #   . i ; . . o . o $ x p # $ ; # . # . # # . . @ % y y 9 @ . . .     ",
"- > # # # , / ,.C.6X8XG.,     # # . # o . # ; ; ; p.h.v $ # # # # # # . # # # @ X.I.P.f r @ @ . .   ",
"# # # # % / :.OX,X6X8XG.;   # o . . . # o # ; ; v ^.].Y $ $ ; $ # $ $ . . # # 9 r.7XE.,.~ r % O .   ",
"o # o % / ,.+XOX+Xw.c.c o o O o # # . . # # # , G N.Z.o.0 p p $ $ $ # # . . % ~ <.r.*./ / ~ 9 o . . ",
"o o @ y ,.OX#XOX,.y u # O , < % $ ; # o # # , ) 1.&X8.,.d u p u $ u # # o % w +.;.l w y O./ y r %   ",
"# @ % / OX$X$XOX/ % % # o w h , ; x M u # % ~ 1.=X=X@X/ , u u $ # # $ $ # , ) <.+.y.A.E ~ ^ ~ y @   ",
"o . r -.#X<X2X6.r O o o o e ! , & 0.Q.a.u 0 +.*X;X=X6.G 9.9.u $ # # $ s ; G X.O.h L..XM.r ! ~ ~ 9 . ",
". O e -.@X4X Xb., O . o @ ) X.w # M Y.9.$ f 7.,X=X8.Y w.7XR.m $ # # ; a w F ..r , q.G.L o 9 ~ ' ! + ",
"  . e / :.b.n.J % O . . q B._.R u ; i ; $ F 8.V.7.@.d q.[.(.9.$ $ $ % 0 0 r d % o # % o . 7 ) $.y + ",
"  @ @ e w J y 9 o O o o Z L.|.y.; $ $ ; ; 2 G #...w < a q.9.p u $ 0 d d 0 $ $ o o # o . 4 t ) J < O ",
"  # @ . @ q q 9 @ . . o 9 I Q s # # # ; $ $ , < < u u $ $ $ u a < d K m u $ # . # # o % 9 7 t 1 o   ",
"  o o   @ 9 ! t @ O o o , q w s ; ; $ ; , $ $ $ ; ; ; $ $ u $ 0 f d d m p $ # $ # . o @ * 5 o o o   ",
"      O 5 ! ( e ; # # % 0 y f n ; i i - - i p i ; $ ; u p u f f f $ $ u u $ # # . # . # o O . . # o ",
"  . o @ t ( t 1 - o @ 0 F y h 2 , i z i ; t.R.f.a $ ; ; < < u A m u $ $ u $ # # # . ; $ # o . o ; o ",
".   # 9 ( ) h 1 o o , w  .y w - $ - : ; > h..XK.v u ; # $ $ 0 9.R.a.u u m u $ # # p l.j.i o . . X o ",
". # @ e ! J H.f.- o q w y w , - & # & - ; V A.u.v ; ; % % f 0 K Y.a.u u p u ; # # v ^.T.z o . .     ",
"o * * t j n W.k.; % q w > : - & - > $ : i c D R v ; - - ; i - , i x u ; $ ; ; $ u % K v # . .       ",
"- o * 9 , - z z o @ 1 1 > z - - - > ; > c S G S i > - # > > # ; ; ; # # # $ ; $ $ % . # . . o .     ",
"  o X o o o o X o o ; - : : : > C B > z S S 2 s > : ; : - - ; ; ; - $ # $ $ ; < # # # $ o # i ,     ",
". X o o X X & o o o & o - : - z Y.Y.b g S w 2 : z z > ; > ; > m m ; ; ; ; ; s A s # # # # - i , @ O ",
"o o - & o o & o X X o & & # & > p.p.c 2 c - ; i y.H.V ; i z V ~.J.v i ; ; 2 f D v ; # # . . o % 9 9 ",
"  X & o X X o X o & & o # & & - : : - 2 2 2 , > h.}.p.s ; ; M R.l.v ; ; , d G D s # o # . o . o 9 y ",
"X   . &   X & o & & - o & & - - - ; - 2 2 : - > M t.x > i < i x z u ; ; 2 F E A.0.- o o .   . % 0 r ",
"X   . . & & o o & & & & & - & - : - , < < - : ; : ; ; > < u > ; ; ; ; < f ..v.{.A.; # o # # # . @ 4 ",
"X X X o & & & * & & & & & & & > > : 2 , - - : - ; ; ; s d d > ; ; - ; < G F S y.D 2 s - o o o o   @ ",
"o X o @ * 1 g g g & X & & X & : > 2 - 2 ; 2 > ; ; ; s G #.@.F 0 ; $ # < w 2 & o o o , @ # < - o     ",
"& o @ q F l H x.k.= & X X : & & - , ; - < : ; ; : s G #.@X*X#.w $ % # # , - - o o o @ o Y T.Q o .   ",
"= * 6 ] @. .k d.t.: & & & & & & - - - - ; > u : ; Z #.6.,X,X7.f - o o o o & - o - o o o m.|.M.@ O   ",
") ) ] 2.>.+.q 2 : & X & = 6 6 6 1 & & & > n i > s ..5.C.5X1X&X+.q o o o o # # o o o o . , D w 6 @ O ",
"<.4.oX>XV. .1 : & & & & k { | r.W 2 & & t.W.B : d o.=.Z.|.U.*X4.) @ o o X & X X o o X .     + 7 7 @ ",
"2.-X:X5X].W , - & & = 7 { 3.3.F.).t.& & N s.c 1 f ....o.Q &.4.%X<.5 & B B & . X & & .       O 6 ! ! ",
"2.-X:X3XI.b & & & & 6 { 3.XX{ m.!.e.& o & & & & , q 9 , * 6 [ 4.[ 6 g /.W.> X X o &         o 5 8 ! ",
";.oX-X*X` = & & g & j | 3.{ P b : : & & & & & & & & & & & @ 6 ( 8 * & M.d.- X X   X       X   X 3 3 ",
"~ [ XX%X{ j g : : = k { _ 6 = : & & & & & & X & X X X X X X X = * + X o o X         X X             ",
"5 e ( $.{ j : & & & = 6 = & & & & & & & & & & X & X X X X X + . X           X     & o .             ",
"@ * 6 q j = & & X & & & & & & : & & & X & & & & & & X X X X X X             X   o & - - .           ",
"  X X o & & X & & & & & & & : : : & & & & & + & X X & N N = o X   X         X X o o 2 G.t.o         ",
"    X X X X & : e.: & & & & & = & : : e.T : = 6 & & g !.).b o X   X     X + O X o o n '.H.o   X     ",
"    X   X X & e.Q.e.& & & & & & & : T ).`.P 6 j j _ P F.S.g X X X - - X + + +     o , U c X         ",
"  X   X o & & N e.: X & & & & = = & b !._.N & 6 j %.%.{ ` 6 X   & h.k.& + + X   X o @ 4 @ o X       ",
"o o X o : - : h k : & X X o X & * * & b b : & & = k ) [ ` 7 X   s Y.x.1 O         O @ 4 4 , -       ",
".     o o o 6 l k & X & X X X & o & * o X o X X X @ @ * q @ X   & 2 2 O O       X . 9 9 % < o       ",
"        o X 7 ' 6 + & & & X & & o & X X X X X X X X   X o X                     o @ 4 4 @ X         ",
"          @ 8 ! 6 + X & & X X o X   X o & X X X   X o o                           + 4 5 3         X ",
"    . & X 3 ' ' 4     * h q c U , X 1 d.B & . & X X o - c c o                     @ e ! 4 O         ",
"    . ; R J ' t +   . 4 e ~ A.(.D o n (.g.& & & X     : x.z.-     o             @ J N.e.t 4 O O     ",
"      B '.D.) t .     @ e ^ V.P.o.9 q W c o & X X     o C C .     .             - I.8X3X;.' 8 3 + O ",
"      : i.W l w +     o 9 ~ @.5.@.) y 1 - X & o     X                           o i.`.B.[ } } ' 5 O ",
"          + 5 @         @ 9 ^ -.OX;.o.h , X   X   X X   .                         o v h 5 8 ' 8 3 O ",
"                        O @ e -.OX>.O.7 @ X X   X o . X   .             # &         o o O + + 3 O   "
};
